<svg width="243" height="175" viewBox="0 0 243 175" fill="none" xmlns="http://www.w3.org/2000/svg">
<g clip-path="url(#clip0_6_1518)">
<path d="M198.884 2.0133C198.879 2.02955 198.874 2.04382 198.869 2.06008C198.859 2.09124 198.85 2.12309 198.843 2.15544C198.785 2.36288 198.753 2.57685 198.748 2.79225C198.746 2.88416 198.748 2.97615 198.755 3.06779C198.764 3.18538 198.781 3.30222 198.806 3.41751C198.832 3.54586 198.868 3.67195 198.914 3.79462C198.934 3.85291 198.958 3.91012 198.984 3.96603C199.155 4.34757 199.411 4.68442 199.734 4.95011C200.057 5.21581 200.436 5.40309 200.844 5.49726L200.846 5.4971C200.886 5.50742 200.926 5.51562 200.967 5.52167C201.194 5.56291 201.425 5.57472 201.655 5.55681L201.659 5.55651C202.22 5.514 202.753 5.29634 203.184 4.9343C203.447 4.71568 203.476 4.48476 203.805 4.58721C204.855 4.91403 205.556 3.18493 205.032 2.23781C205.032 2.20211 205.031 2.16641 205.027 2.13086C204.977 1.46931 203.981 1.30067 203.399 0.949531L203.397 0.961237C203.37 1.06383 203.311 1.15539 203.229 1.2231C203.147 1.29081 203.047 1.3313 202.941 1.33889C202.835 1.34648 202.729 1.32081 202.639 1.26545C202.548 1.2101 202.477 1.12783 202.435 1.03016C202.329 0.774329 202.233 0.515 202.146 0.252172C201.032 -0.549713 198.057 0.703203 198.884 2.0133Z" fill="#29282C"/>
<path d="M191.9 8.0166C191.748 8.3698 187.072 8.33196 186.858 8.64647C185.207 11.0746 191.159 21.4057 189.508 23.837L189.278 24.111C189.817 23.8629 190.334 23.5711 190.825 23.2386C190.869 22.2435 190.913 21.2451 190.961 20.2499C191.455 20.8823 191.854 21.5836 192.145 22.3316C192.53 22.0608 192.845 21.5587 194.493 20.5712C195.16 19.8388 195.929 19.2061 196.776 18.6925L191.9 8.0166Z" fill="#29282C"/>
<path d="M195.295 27.9167C194.779 27.5808 194.191 27.3727 193.578 27.3097C192.965 27.2466 192.347 27.3305 191.773 27.5544C191.199 27.7782 190.687 28.1356 190.28 28.5968C189.872 29.058 189.58 29.6097 189.428 30.2062L182.323 48.7106L170.109 41.7803C170.055 40.9837 169.75 40.2245 169.238 39.6117C168.726 38.9988 168.033 38.5638 167.259 38.369C166.484 38.1741 165.668 38.2295 164.926 38.5272C164.185 38.8248 163.557 39.3494 163.133 40.0257C162.708 40.7021 162.509 41.4954 162.563 42.292C162.618 43.0885 162.924 43.8473 163.436 44.4596C163.949 45.0718 164.642 45.5061 165.417 45.7C166.192 45.894 167.009 45.8377 167.75 45.5392C170.322 48.2829 181.473 59.5321 186.089 55.1368C189.97 51.4423 195.569 37.1238 196.917 32.1794C197.133 31.3887 197.093 30.55 196.801 29.784C196.51 29.0179 195.982 28.3641 195.295 27.9167Z" fill="#FFEAE3"/>
<path d="M139.875 40.3064C136.515 31.4018 135.725 22.3099 138.339 12.9699C138.309 12.4166 138.499 11.8738 138.869 11.4606C139.238 11.0474 139.757 10.7976 140.31 10.7659L160.966 9.60668C161.52 9.57624 162.063 9.76653 162.477 10.1358C162.89 10.5051 163.14 11.0232 163.172 11.5764L164.707 38.9129C164.738 39.4662 164.548 40.009 164.178 40.4222C163.809 40.8354 163.29 41.0853 162.737 41.117L142.08 42.2762C141.527 42.3066 140.984 42.1163 140.57 41.747C140.157 41.3778 139.907 40.8597 139.875 40.3064Z" fill="#F0F0F0"/>
<path d="M140.996 31.9607C138.667 27.6585 138.992 21.2916 140.008 14.3864C139.98 13.8682 140.158 13.3598 140.504 12.9728C140.85 12.5859 141.336 12.3519 141.854 12.3222L159.606 11.326C160.125 11.2974 160.634 11.4756 161.021 11.8215C161.408 12.1673 161.642 12.6525 161.672 13.1707L163.038 37.4964C163.067 38.0146 162.889 38.523 162.543 38.91C162.197 39.2969 161.711 39.5309 161.193 39.5606L150.195 40.1777C147.886 40.3047 145.62 39.5109 143.896 37.9705C142.171 36.43 141.128 34.2687 140.996 31.9607Z" fill="#FFF0D7"/>
<path d="M149.939 35.2676C150.95 35.2676 151.769 34.4492 151.769 33.4396C151.769 32.43 150.95 31.6116 149.939 31.6116C148.929 31.6116 148.11 32.43 148.11 33.4396C148.11 34.4492 148.929 35.2676 149.939 35.2676Z" fill="#6868AA"/>
<path d="M154.962 16.6765C154.404 15.7467 153.112 15.6636 152.028 15.688C150.909 15.664 149.792 15.789 148.706 16.0599C147.635 16.3781 146.615 17.0294 146.098 18.0192C145.463 19.2358 145.686 20.7106 146.027 22.0398C146.685 24.5967 147.716 27.0427 149.087 29.2987L149.881 29.8406C151.504 28.3609 152.814 26.5717 153.735 24.5782C154.655 22.5847 155.168 20.4273 155.241 18.233C155.297 17.6982 155.201 17.1586 154.962 16.6765Z" fill="#6868AA"/>
<path d="M37.9695 110.807C31.2547 85.7485 32.3363 57.6633 37.9695 27.8109C37.9703 27.0717 38.2645 26.363 38.7875 25.8403C39.3105 25.3176 40.0195 25.0236 40.7591 25.0227H123.765C124.505 25.0236 125.214 25.3176 125.737 25.8403C126.26 26.363 126.554 27.0717 126.555 27.8109V110.807C126.554 111.546 126.26 112.254 125.737 112.777C125.214 113.3 124.505 113.594 123.765 113.595H40.7591C40.0195 113.594 39.3105 113.3 38.7875 112.777C38.2645 112.254 37.9703 111.546 37.9695 110.807Z" fill="#F0F0F0"/>
<path d="M38.5011 90.0363C36.7961 69.9313 37.2487 49.7017 39.8511 29.6929C39.852 28.9537 40.1462 28.2451 40.6692 27.7224C41.1921 27.1997 41.9012 26.9056 42.6408 26.9048H121.883C122.249 26.9048 122.612 26.9769 122.951 27.117C123.289 27.2571 123.596 27.4625 123.856 27.7214C124.115 27.9803 124.32 28.2877 124.46 28.626C124.6 28.9642 124.673 29.3268 124.673 29.6929V108.926C124.673 109.665 124.379 110.374 123.856 110.897C123.332 111.42 122.623 111.714 121.883 111.714H62.1198C56.1808 111.717 50.4571 109.491 46.0828 105.476C41.7084 101.462 39.0025 95.9509 38.5011 90.0363Z" fill="white"/>
<path d="M89.2385 42.5512H55.8765C55.7819 42.5514 55.6882 42.5329 55.6007 42.4969C55.5132 42.4608 55.4337 42.4079 55.3668 42.3411C55.2998 42.2743 55.2467 42.195 55.2104 42.1076C55.1742 42.0203 55.1555 41.9267 55.1555 41.8321C55.1555 41.7375 55.1742 41.6439 55.2104 41.5566C55.2467 41.4692 55.2998 41.3899 55.3668 41.3231C55.4337 41.2563 55.5132 41.2034 55.6007 41.1673C55.6882 41.1313 55.7819 41.1128 55.8765 41.113H89.2385C89.4291 41.1134 89.6117 41.1894 89.7463 41.3242C89.8809 41.459 89.9565 41.6417 89.9565 41.8321C89.9565 42.0226 89.8809 42.2052 89.7463 42.34C89.6117 42.4748 89.4291 42.5508 89.2385 42.5512Z" fill="#6868AA"/>
<path d="M106.127 49.1251H55.8765C55.7819 49.1253 55.6882 49.1069 55.6007 49.0708C55.5132 49.0348 55.4337 48.9818 55.3668 48.9151C55.2998 48.8483 55.2467 48.7689 55.2104 48.6816C55.1742 48.5942 55.1555 48.5006 55.1555 48.4061C55.1555 48.3115 55.1742 48.2179 55.2104 48.1305C55.2467 48.0432 55.2998 47.9639 55.3668 47.8971C55.4337 47.8303 55.5132 47.7774 55.6007 47.7413C55.6882 47.7053 55.7819 47.6868 55.8765 47.687H106.127C106.318 47.6874 106.5 47.7633 106.635 47.8981C106.769 48.033 106.845 48.2156 106.845 48.4061C106.845 48.5965 106.769 48.7792 106.635 48.914C106.5 49.0488 106.318 49.1247 106.127 49.1251Z" fill="#F0F0F0"/>
<path d="M106.128 54.2598H55.8754C55.6844 54.2598 55.5013 54.3356 55.3663 54.4705C55.2312 54.6055 55.1554 54.7885 55.1554 54.9794C55.1554 55.1702 55.2312 55.3533 55.3663 55.4882C55.5013 55.6232 55.6844 55.699 55.8754 55.699H106.128C106.319 55.699 106.502 55.6232 106.637 55.4882C106.772 55.3533 106.848 55.1702 106.848 54.9794C106.848 54.7885 106.772 54.6055 106.637 54.4705C106.502 54.3356 106.319 54.2598 106.128 54.2598Z" fill="#F0F0F0"/>
<path d="M106.127 62.2728H55.8765C55.6857 62.2728 55.5027 62.1971 55.3678 62.0622C55.2328 61.9274 55.157 61.7445 55.157 61.5538C55.157 61.3631 55.2328 61.1802 55.3678 61.0453C55.5027 60.9105 55.6857 60.8347 55.8765 60.8347H106.127C106.318 60.8347 106.501 60.9105 106.636 61.0453C106.771 61.1802 106.846 61.3631 106.846 61.5538C106.846 61.7445 106.771 61.9274 106.636 62.0622C106.501 62.1971 106.318 62.2728 106.127 62.2728Z" fill="#F0F0F0"/>
<path d="M106.127 68.8468H55.8765C55.7819 68.847 55.6882 68.8286 55.6007 68.7925C55.5132 68.7565 55.4337 68.7035 55.3668 68.6367C55.2998 68.5699 55.2467 68.4906 55.2104 68.4033C55.1742 68.3159 55.1555 68.2223 55.1555 68.1278C55.1555 68.0332 55.1742 67.9396 55.2104 67.8522C55.2467 67.7649 55.2998 67.6856 55.3668 67.6188C55.4337 67.552 55.5132 67.499 55.6007 67.463C55.6882 67.4269 55.7819 67.4085 55.8765 67.4087H106.127C106.318 67.4091 106.5 67.485 106.635 67.6198C106.769 67.7546 106.845 67.9373 106.845 68.1278C106.845 68.3182 106.769 68.5009 106.635 68.6357C106.5 68.7705 106.318 68.8464 106.127 68.8468Z" fill="#F0F0F0"/>
<path d="M106.127 75.4603H55.8765C55.7819 75.4605 55.6882 75.4421 55.6007 75.406C55.5132 75.37 55.4337 75.3171 55.3668 75.2503C55.2998 75.1835 55.2467 75.1041 55.2104 75.0168C55.1742 74.9295 55.1555 74.8358 55.1555 74.7413C55.1555 74.6467 55.1742 74.5531 55.2104 74.4658C55.2467 74.3784 55.2998 74.2991 55.3668 74.2323C55.4337 74.1655 55.5132 74.1126 55.6007 74.0765C55.6882 74.0405 55.7819 74.022 55.8765 74.0222H106.127C106.318 74.0226 106.5 74.0986 106.635 74.2334C106.769 74.3682 106.845 74.5508 106.845 74.7413C106.845 74.9317 106.769 75.1144 106.635 75.2492C106.5 75.384 106.318 75.4599 106.127 75.4603Z" fill="#F0F0F0"/>
<path d="M106.127 82.0741H55.8765C55.7819 82.0743 55.6882 82.0558 55.6007 82.0198C55.5132 81.9838 55.4337 81.9308 55.3668 81.864C55.2998 81.7972 55.2467 81.7179 55.2104 81.6306C55.1742 81.5432 55.1555 81.4496 55.1555 81.355C55.1555 81.2605 55.1742 81.1669 55.2104 81.0795C55.2467 80.9922 55.2998 80.9129 55.3668 80.8461C55.4337 80.7793 55.5132 80.7263 55.6007 80.6903C55.6882 80.6542 55.7819 80.6358 55.8765 80.636H106.127C106.318 80.6364 106.5 80.7123 106.635 80.8471C106.769 80.9819 106.845 81.1646 106.845 81.355C106.845 81.5455 106.769 81.7282 106.635 81.863C106.5 81.9978 106.318 82.0737 106.127 82.0741Z" fill="#F0F0F0"/>
<path d="M106.127 88.6877H55.8765C55.7819 88.6878 55.6882 88.6694 55.6007 88.6333C55.5132 88.5973 55.4337 88.5444 55.3668 88.4776C55.2998 88.4108 55.2467 88.3315 55.2104 88.2441C55.1742 88.1568 55.1555 88.0631 55.1555 87.9686C55.1555 87.874 55.1742 87.7804 55.2104 87.6931C55.2467 87.6057 55.2998 87.5264 55.3668 87.4596C55.4337 87.3928 55.5132 87.3399 55.6007 87.3038C55.6882 87.2678 55.7819 87.2493 55.8765 87.2495H106.127C106.318 87.2499 106.5 87.3258 106.635 87.4607C106.769 87.5955 106.845 87.7781 106.845 87.9686C106.845 88.159 106.769 88.3417 106.635 88.4765C106.5 88.6113 106.318 88.6873 106.127 88.6877Z" fill="#F0F0F0"/>
<path d="M106.127 95.3012H55.8765C55.7819 95.3014 55.6882 95.2829 55.6007 95.2469C55.5132 95.2108 55.4337 95.1579 55.3668 95.0911C55.2998 95.0243 55.2467 94.945 55.2104 94.8576C55.1742 94.7703 55.1555 94.6767 55.1555 94.5821C55.1555 94.4875 55.1742 94.3939 55.2104 94.3066C55.2467 94.2192 55.2998 94.1399 55.3668 94.0731C55.4337 94.0063 55.5132 93.9534 55.6007 93.9173C55.6882 93.8813 55.7819 93.8628 55.8765 93.863H106.127C106.318 93.8634 106.5 93.9394 106.635 94.0742C106.769 94.209 106.845 94.3917 106.845 94.5821C106.845 94.7725 106.769 94.9552 106.635 95.09C106.5 95.2248 106.318 95.3008 106.127 95.3012Z" fill="#F0F0F0"/>
<path d="M94.2028 51.5117C91.995 50.7234 89.1358 51.0308 87.5864 52.9525C86.1985 54.6737 86.0321 57.4142 87.7979 58.9502C89.9474 60.82 92.9245 60.1322 95.2715 59.0772C97.4192 58.1119 99.7832 56.5556 99.75 53.9143C99.7449 53.2354 99.5781 52.5675 99.2633 51.966C98.9485 51.3644 98.4949 50.8464 97.9399 50.455C97.3767 50.0745 96.7317 49.8318 96.0573 49.7465C95.3829 49.6611 94.6978 49.7356 94.0575 49.9638C93.4907 50.1708 93.7355 51.0842 94.3088 50.8748C94.7704 50.6994 95.2654 50.629 95.7576 50.6688C96.2499 50.7086 96.7271 50.8577 97.1545 51.105C97.5819 51.3524 97.9487 51.692 98.2283 52.0989C98.5078 52.5059 98.693 52.97 98.7705 53.4575C99.102 55.6505 97.2274 57.0708 95.4851 57.9361C93.5738 58.8853 91.1412 59.7936 89.095 58.703C87.3447 57.7701 87.0247 55.6423 87.995 54.0083C89.198 51.9825 91.9065 51.6925 93.9515 52.4227C94.5254 52.6276 94.7725 51.7151 94.2028 51.5117H94.2028Z" fill="#6868AA"/>
<path d="M64.5831 64.7389C62.3753 63.9507 59.5161 64.2581 57.9667 66.1798C56.5789 67.901 56.4124 70.6415 58.1782 72.1775C60.3277 74.0473 63.3048 73.3595 65.6518 72.3045C67.7995 71.3392 70.1635 69.7829 70.1303 67.1416C70.1252 66.4627 69.9584 65.7948 69.6436 65.1933C69.3288 64.5917 68.8752 64.0737 68.3202 63.6823C67.7569 63.3018 67.112 63.0591 66.4376 62.9737C65.7632 62.8884 65.0781 62.9629 64.4378 63.1911C63.871 63.3981 64.1158 64.3115 64.6891 64.1021C65.1507 63.9266 65.6457 63.8563 66.138 63.8961C66.6302 63.9359 67.1074 64.0849 67.5348 64.3323C67.9622 64.5797 68.329 64.9193 68.6086 65.3262C68.8881 65.7331 69.0733 66.1973 69.1508 66.6848C69.4823 68.8778 67.6077 70.2981 65.8655 71.1634C63.9541 72.1126 61.5215 73.0209 59.4753 71.9303C57.7251 70.9974 57.405 68.8696 58.3753 67.2356C59.5783 65.2097 62.2868 64.9198 64.3318 65.65C64.9057 65.8549 65.1528 64.9424 64.5831 64.7389Z" fill="#F0F0F0"/>
<path d="M93.8877 91.1933C91.6799 90.405 88.8207 90.7125 87.2712 92.6341C85.8834 94.3553 85.717 97.0958 87.4828 98.6318C89.6323 100.502 92.6093 99.8138 94.9564 98.7589C97.1041 97.7936 99.4681 96.2372 99.4349 93.5959C99.4298 92.9171 99.263 92.2492 98.9482 91.6476C98.6334 91.046 98.1797 90.5281 97.6248 90.1366C97.0615 89.7561 96.4166 89.5134 95.7422 89.4281C95.0677 89.3428 94.3827 89.4172 93.7423 89.6454C93.1755 89.8524 93.4204 90.7658 93.9936 90.5565C94.4553 90.381 94.9502 90.3106 95.4425 90.3504C95.9348 90.3903 96.412 90.5393 96.8394 90.7867C97.2668 91.0341 97.6336 91.3736 97.9131 91.7805C98.1927 92.1875 98.3779 92.6516 98.4553 93.1391C98.7869 95.3321 96.9122 96.7524 95.17 97.6177C93.2587 98.567 90.8261 99.4752 88.7799 98.3846C87.0296 97.4517 86.7095 95.324 87.6799 93.69C88.8829 91.6641 91.5914 91.3742 93.6363 92.1043C94.2103 92.3093 94.4573 91.3967 93.8876 91.1933H93.8877Z" fill="#F0F0F0"/>
<path d="M92.8185 100.131C93.5329 104.723 95.6963 108.967 98.9935 112.245C101.511 114.703 104.593 116.506 107.97 117.497C111.347 118.488 114.915 118.636 118.362 117.928C118.951 117.805 118.875 116.863 118.279 116.987C114.07 117.858 109.694 117.408 105.751 115.698C102.601 114.302 99.8526 112.137 97.7576 109.402C95.6626 106.668 94.2881 103.451 93.7602 100.048C93.6688 99.449 92.7266 99.5282 92.8185 100.131V100.131Z" fill="#F0F0F0"/>
<path d="M119.788 124.007L126.819 119.96C126.879 119.919 126.928 119.864 126.963 119.8C126.998 119.737 127.018 119.666 127.021 119.593C127.025 119.521 127.011 119.448 126.982 119.382C126.953 119.315 126.91 119.256 126.854 119.209L119.615 113.971C119.125 113.617 118.514 114.338 119.008 114.695C121.421 116.441 123.834 118.187 126.247 119.933L126.282 119.182L119.251 123.229C118.723 123.533 119.264 124.308 119.788 124.007Z" fill="#F0F0F0"/>
<path d="M98.8055 49.4874C99.5198 44.895 101.683 40.6507 104.98 37.3733C107.498 34.9154 110.58 33.112 113.957 32.1212C117.333 31.1303 120.902 30.9822 124.349 31.6897C124.938 31.8127 124.862 32.7552 124.266 32.6309C120.057 31.7597 115.681 32.2098 111.738 33.9196C108.588 35.3165 105.84 37.4814 103.745 40.2159C101.65 42.9503 100.275 46.1667 99.7472 49.5701C99.6558 50.1691 98.7135 50.0899 98.8055 49.4874Z" fill="#29282C"/>
<path d="M125.775 25.6113L132.806 29.6582C132.866 29.6998 132.915 29.7546 132.95 29.8182C132.985 29.8817 133.005 29.9525 133.008 30.025C133.012 30.0975 132.998 30.1699 132.969 30.2365C132.94 30.303 132.897 30.3621 132.841 30.4091L125.602 35.6469C125.112 36.0014 124.501 35.2802 124.995 34.923L132.234 29.6851L132.269 30.436L125.238 26.3891C124.71 26.0852 125.251 25.3099 125.775 25.6113V25.6113Z" fill="#29282C"/>
<path d="M61.3073 74.9361C60.5929 79.5285 58.4294 83.7729 55.1323 87.0502C52.6148 89.5081 49.5327 91.3115 46.156 92.3023C42.7793 93.2932 39.2109 93.4414 35.7636 92.7338C35.1745 92.6108 35.251 91.6683 35.8463 91.7926C40.0557 92.6638 44.4315 92.2137 48.3751 90.5039C51.5248 89.107 54.2732 86.9421 56.3682 84.2077C58.4632 81.4732 59.8377 78.2568 60.3656 74.8534C60.457 74.2544 61.3992 74.3336 61.3073 74.9361H61.3073Z" fill="#F0F0F0"/>
<path d="M34.3379 98.8125L27.3067 94.7656C27.2472 94.7239 27.1981 94.6692 27.163 94.6056C27.128 94.542 27.108 94.4713 27.1046 94.3987C27.1012 94.3262 27.1145 94.2539 27.1434 94.1873C27.1724 94.1207 27.2162 94.0617 27.2716 94.0147L34.5107 88.7768C35.0006 88.4223 35.6119 89.1436 35.1181 89.5008L27.8789 94.7386L27.8438 93.9878L34.875 98.0346C35.403 98.3386 34.8617 99.1139 34.3379 98.8125Z" fill="#F0F0F0"/>
<path d="M5.12038 108.768C1.59728 102.709 -0.0819955 96.2022 0.681212 89.1017C0.591815 88.7036 0.664077 88.2862 0.882152 87.9413C1.10023 87.5963 1.4463 87.3519 1.84445 87.2617L16.7046 83.9109C17.103 83.8216 17.5205 83.8938 17.8657 84.1118C18.2108 84.3297 18.4553 84.6756 18.5456 85.0735L22.9848 104.739C23.0742 105.138 23.0019 105.555 22.7839 105.9C22.5658 106.245 22.2197 106.489 21.8216 106.579L6.96141 109.93C6.56305 110.02 6.14551 109.947 5.80037 109.729C5.45523 109.511 5.21068 109.166 5.12038 108.768Z" fill="#F0F0F0"/>
<path d="M4.91943 102.571C2.70517 99.7292 2.16686 95.066 2.06554 89.9277C1.9818 89.5549 2.04948 89.164 2.25372 88.841C2.45795 88.5179 2.78206 88.289 3.15495 88.2045L15.926 85.3248C16.2991 85.2411 16.6901 85.3088 17.0134 85.5129C17.3366 85.717 17.5657 86.041 17.6502 86.4136L21.6005 103.914C21.6842 104.287 21.6165 104.677 21.4123 105C21.208 105.323 20.8839 105.552 20.511 105.637L12.5996 107.421C10.9378 107.794 9.19592 107.492 7.7561 106.583C6.31629 105.674 5.29613 104.231 4.91943 102.571Z" fill="#FFF0D7"/>
<path d="M11.5945 103.905C12.3383 103.905 12.9412 103.302 12.9412 102.559C12.9412 101.815 12.3383 101.213 11.5945 101.213C10.8507 101.213 10.2477 101.815 10.2477 102.559C10.2477 103.302 10.8507 103.905 11.5945 103.905Z" fill="#F0F0F0"/>
<path d="M13.2039 89.7745C12.6855 89.1671 11.7371 89.2636 10.9524 89.4131C10.1371 89.5315 9.34122 89.758 8.58578 90.0865C8.20853 90.2529 7.86797 90.4923 7.58376 90.7908C7.29954 91.0894 7.07728 91.4413 6.92981 91.8262C6.61635 92.7869 6.95769 93.8308 7.36712 94.7547C8.15536 96.5318 9.20166 98.1829 10.4722 99.6546L11.1142 99.9518C12.113 98.6801 12.847 97.2215 13.2732 95.662C13.6994 94.1025 13.8091 92.4735 13.5958 90.8709C13.5715 90.4758 13.4356 90.0956 13.2039 89.7745Z" fill="#F0F0F0"/>
<path d="M11.5945 103.905C12.3383 103.905 12.9412 103.302 12.9412 102.559C12.9412 101.815 12.3383 101.213 11.5945 101.213C10.8507 101.213 10.2477 101.815 10.2477 102.559C10.2477 103.302 10.8507 103.905 11.5945 103.905Z" fill="#625C60"/>
<path d="M13.2039 89.7745C12.6855 89.1671 11.7371 89.2636 10.9524 89.4131C10.1371 89.5315 9.34122 89.758 8.58578 90.0865C8.20853 90.2529 7.86797 90.4923 7.58376 90.7908C7.29954 91.0894 7.07728 91.4413 6.92981 91.8262C6.61635 92.7869 6.95769 93.8308 7.36712 94.7547C8.15536 96.5318 9.20166 98.1829 10.4722 99.6546L11.1142 99.9518C12.113 98.6801 12.847 97.2215 13.2732 95.662C13.6994 94.1025 13.8091 92.4735 13.5958 90.8709C13.5715 90.4758 13.4356 90.0956 13.2039 89.7745Z" fill="#625C60"/>
<path d="M198.887 167.532L195.271 167.532L193.55 153.59H198.888L198.887 167.532Z" fill="#FFEAE3"/>
<path d="M187.971 172.865C187.973 173.27 188.134 173.658 188.42 173.945C188.707 174.231 189.094 174.393 189.5 174.396H196.308L196.519 173.959L197.482 171.973L197.855 173.959L197.937 174.396H200.505L200.468 173.956L199.784 165.749L198.888 165.694L195.018 165.465L194.067 165.407V167.857C193.345 168.624 187.684 171.524 187.971 172.865Z" fill="#29282C"/>
<path d="M184.764 164.727L181.351 165.924L175.111 153.336L180.149 151.571L184.764 164.727Z" fill="#FFEAE3"/>
<path d="M176.229 173.371C176.365 173.752 176.646 174.065 177.011 174.241C177.376 174.416 177.796 174.441 178.179 174.31L184.603 172.058L184.658 171.576L184.909 169.383L185.918 171.134L186.141 171.519L188.564 170.67L188.384 170.267L185.02 162.749L184.157 162.993L180.429 164.057L179.512 164.316L180.324 166.629C179.897 167.591 175.514 172.2 176.229 173.371Z" fill="#29282C"/>
<path d="M181.953 55.9119L184.195 66.0414L200.592 67.5238L202.099 58.7037L181.953 55.9119Z" fill="#FFEAE3"/>
<path d="M201.686 63.0291L183.235 62.7212L182.838 68.1047L168.59 110.912L166.058 121.437L173.315 160.515L185.604 160.507C185.604 160.507 185.349 150.24 184.859 149.815C184.368 149.39 183.344 149.821 184.104 147.629C184.863 145.437 185.423 144.728 184.525 143.847C183.627 142.966 182.541 143.705 183.207 141.606C183.874 139.507 189.312 110.848 189.312 110.848V162.23H201.956C201.956 162.23 204.603 159.813 203.385 158.554C202.166 157.295 201.177 157.048 202.166 155.319C203.155 153.59 205.301 154.025 203.486 151.831C202.045 150.088 205.493 102.011 206.971 82.3228C207.371 77.0019 205.671 71.736 202.236 67.6513L201.686 63.0291Z" fill="#29282C"/>
<path d="M192.093 23.4202L200.254 23L204.045 28.9866C204.045 28.9866 211.177 30.1784 210.683 38.5784C210.188 46.9785 202.005 54.3496 202.005 54.3496L202.355 53.1509L201.747 54.886L201.825 55.8602L202.654 56.892L202.739 57.959L202.005 59.6472L203.003 61.2637L182.008 59.2307L181.24 56.4354L182.36 54.9344L181.735 52.9766L182.675 51.0935L183.166 50.6849C183.166 50.6849 177.8 42.6289 183.959 36.5612L186.431 32.3612L189.197 28.9885L192.093 23.4202Z" fill="#F7A6B2"/>
<path d="M194.218 19.4737C198.492 19.4737 201.957 16.0106 201.957 11.7387C201.957 7.46676 198.492 4.00366 194.218 4.00366C189.943 4.00366 186.478 7.46676 186.478 11.7387C186.478 16.0106 189.943 19.4737 194.218 19.4737Z" fill="#FFEAE3"/>
<path d="M200.096 22.8815C199.465 22.3552 199.027 21.6356 198.848 20.8344C198.705 21.8071 198.742 22.7979 198.958 23.757C198.539 24.0719 198.133 24.3711 197.748 24.642C197.457 23.8939 197.058 23.1926 196.563 22.5603C196.516 23.5555 196.472 24.5538 196.428 25.549C195.937 25.8815 195.419 26.1732 194.881 26.4213L195.111 26.1473C196.762 23.7161 192.489 19.2409 194.14 16.8127C194.603 16.1325 192.511 10.7566 190.917 10.5141C189.499 10.2999 189.559 10.7093 188.185 11.0085C188.042 10.4138 187.821 9.84085 187.526 9.30474C187.605 9.90213 187.586 10.5082 187.473 11.0999C186.984 11.1188 186.6 10.8077 186.08 10.7282C182.762 10.2212 183.099 6.63413 184.022 5.49721C184.949 4.36345 188.024 4.02332 189.442 3.65485C189.571 3.52888 189.864 3.60761 189.993 3.48794C192.711 1.00232 196.345 0.590684 199.616 1.69236C199.91 1.79368 200.195 1.91787 200.47 2.06378C203.246 3.51769 205.622 5.51887 205.449 8.64654C205.368 10.1114 205.036 10.3395 205.449 11.166C205.551 11.3688 204.662 13.2785 206.158 13.482C207.655 13.6855 206.98 14.8403 207.34 15.2601C208.734 16.8866 203.739 21.6305 200.096 22.8815Z" fill="#29282C"/>
<path d="M130.024 130.464C128.4 123.647 128.67 116.933 131.451 110.354C131.481 109.947 131.67 109.569 131.979 109.301C132.287 109.034 132.689 108.9 133.096 108.928L148.292 110.006C148.699 110.035 149.078 110.225 149.345 110.533C149.613 110.841 149.747 111.243 149.719 111.65L148.291 131.759C148.262 132.166 148.072 132.545 147.764 132.813C147.455 133.08 147.053 133.214 146.646 133.186L131.451 132.108C131.043 132.079 130.664 131.889 130.397 131.581C130.129 131.273 129.995 130.871 130.024 130.464Z" fill="#F0F0F0"/>
<path d="M131.62 124.473C130.321 121.114 131.152 116.493 132.538 111.545C132.566 111.163 132.743 110.809 133.032 110.558C133.321 110.308 133.697 110.182 134.079 110.209L147.138 111.135C147.519 111.162 147.874 111.34 148.125 111.629C148.375 111.917 148.501 112.294 148.475 112.675L147.204 130.57C147.177 130.951 146.999 131.305 146.71 131.556C146.421 131.806 146.045 131.932 145.663 131.905L137.574 131.332C135.875 131.209 134.294 130.418 133.178 129.133C132.062 127.847 131.502 126.171 131.62 124.473Z" fill="#FFF0D7"/>
<path d="M138.015 127.732C138.759 127.732 139.362 127.13 139.362 126.386C139.362 125.643 138.759 125.04 138.015 125.04C137.271 125.04 136.668 125.643 136.668 126.386C136.668 127.13 137.271 127.732 138.015 127.732Z" fill="#625C60"/>
<path d="M143.247 114.61C142.926 113.879 141.99 113.698 141.196 113.615C140.381 113.493 139.553 113.48 138.735 113.577C138.326 113.628 137.931 113.759 137.572 113.962C137.214 114.166 136.9 114.439 136.647 114.765C136.07 115.595 136.095 116.693 136.221 117.695C136.462 119.624 136.987 121.507 137.779 123.282L138.308 123.752C139.631 122.822 140.755 121.638 141.613 120.267C142.472 118.897 143.047 117.369 143.306 115.773C143.396 115.388 143.376 114.985 143.247 114.61Z" fill="#625C60"/>
<path d="M211.38 59.5283L211.075 35.8116C211.06 34.8069 210.649 33.8486 209.932 33.1437C209.216 32.4388 208.251 32.0437 207.245 32.0437C206.725 32.0437 206.211 32.1496 205.733 32.3549C205.255 32.5602 204.824 32.8606 204.466 33.2378C204.108 33.615 203.831 34.0611 203.651 34.5489C203.471 35.0367 203.393 35.556 203.42 36.0751L204.492 60.7012L204.513 75.6924C203.881 75.9603 203.347 76.416 202.983 76.9978C202.619 77.5796 202.444 78.2592 202.48 78.9442C202.516 79.6293 202.762 80.2866 203.185 80.8269C203.608 81.3671 204.187 81.7642 204.844 81.964C205.501 82.1639 206.203 82.1569 206.855 81.944C207.508 81.731 208.079 81.3225 208.491 80.7739C208.903 80.2253 209.136 79.5632 209.159 78.8776C209.181 78.192 208.992 77.516 208.617 76.9416L211.38 59.5283Z" fill="#FFEAE3"/>
<path d="M231.631 174.677H221.174L221.129 174.596C220.995 174.353 220.866 174.096 220.745 173.833C219.668 171.528 219.213 168.892 218.811 166.566L218.509 164.813C218.472 164.601 218.5 164.382 218.588 164.186C218.676 163.989 218.821 163.823 219.004 163.71C219.187 163.596 219.4 163.539 219.616 163.547C219.831 163.555 220.039 163.627 220.213 163.754C221.803 164.91 223.392 166.064 224.983 167.218C225.585 167.656 226.273 168.163 226.932 168.711C226.995 168.402 227.062 168.093 227.128 167.788C227.174 167.577 227.282 167.385 227.437 167.236C227.593 167.086 227.79 166.987 228.002 166.95C228.215 166.914 228.433 166.941 228.63 167.029C228.827 167.118 228.993 167.263 229.107 167.446L230.331 169.41C231.223 170.845 232.011 172.259 231.85 173.784C231.851 173.802 231.849 173.821 231.846 173.839C231.814 174.089 231.754 174.336 231.668 174.573L231.631 174.677Z" fill="#F0F0F0"/>
<path d="M242.127 174.903L142.757 175C142.657 175 142.563 174.96 142.493 174.89C142.423 174.819 142.383 174.724 142.383 174.625C142.383 174.526 142.423 174.431 142.493 174.361C142.563 174.29 142.657 174.251 142.757 174.25L242.127 174.153C242.226 174.154 242.321 174.194 242.391 174.264C242.461 174.334 242.5 174.429 242.5 174.528C242.5 174.627 242.461 174.722 242.391 174.793C242.321 174.863 242.226 174.903 242.127 174.903Z" fill="#F0F0F0"/>
</g>
<defs>
<clipPath id="clip0_6_1518">
<rect width="242" height="175" fill="white" transform="translate(0.5)"/>
</clipPath>
</defs>
</svg>
