<svg width="281" height="175" viewBox="0 0 281 175" fill="none" xmlns="http://www.w3.org/2000/svg">
<g clip-path="url(#clip0_6_1641)">
<path d="M97.4858 166.474C97.267 166.484 97.0505 166.426 96.8655 166.31C96.6805 166.193 96.536 166.022 96.4515 165.821C96.367 165.62 96.3467 165.397 96.3932 165.184C96.4398 164.971 96.551 164.777 96.7118 164.629L96.785 164.339C96.7753 164.316 96.7656 164.293 96.7559 164.27C96.5355 163.751 96.1663 163.309 95.6945 162.998C95.2228 162.688 94.6696 162.524 94.1043 162.526C93.5391 162.528 92.9872 162.696 92.5177 163.01C92.0483 163.324 91.6824 163.769 91.4659 164.289C90.6007 166.366 89.4991 168.446 89.2278 170.641C89.1084 171.612 89.1588 172.596 89.3768 173.549C87.3446 169.132 86.2894 164.33 86.2826 159.471C86.2822 158.252 86.3502 157.033 86.4863 155.821C86.5987 154.828 86.7548 153.841 86.9544 152.862C88.0435 147.548 90.3821 142.568 93.7779 138.329C95.4215 137.436 96.7507 136.062 97.5863 134.392C97.8891 133.792 98.1031 133.151 98.2216 132.49C98.0362 132.514 97.5225 129.7 97.6624 129.528C97.404 129.137 96.9415 128.943 96.6593 128.561C95.2559 126.665 93.3223 126.996 92.3129 129.573C90.1566 130.658 90.1357 132.456 91.4588 134.186C92.3006 135.286 92.4163 136.776 93.1548 137.954C93.0788 138.051 92.9998 138.145 92.9238 138.242C91.5348 140.022 90.3241 141.933 89.3092 143.948C89.556 141.69 89.2615 139.407 88.4498 137.285C87.6271 135.307 86.0851 133.641 84.7272 131.931C83.0962 129.878 79.7515 130.774 79.4642 133.377C79.4614 133.403 79.4587 133.428 79.456 133.453C79.6577 133.566 79.8551 133.687 80.0483 133.814C80.291 133.976 80.4791 134.206 80.5878 134.476C80.6966 134.746 80.721 135.043 80.6579 135.327C80.5947 135.61 80.447 135.869 80.234 136.068C80.021 136.267 79.7527 136.397 79.4643 136.441L79.4348 136.446C79.5066 137.17 79.6336 137.888 79.8147 138.593C78.0727 145.306 81.8335 147.751 87.2036 147.861C87.3221 147.922 87.4376 147.982 87.5562 148.04C86.5365 150.92 85.8969 153.919 85.6535 156.963C85.5156 158.759 85.5238 160.563 85.6778 162.357L85.6687 162.294C85.2796 160.298 84.2114 158.498 82.6444 157.196C80.317 155.291 77.029 154.59 74.5182 153.058C74.2513 152.887 73.9411 152.796 73.624 152.796C73.3069 152.795 72.9962 152.884 72.7285 153.054C72.4608 153.223 72.2474 153.465 72.1133 153.752C71.9792 154.038 71.9301 154.357 71.9717 154.67C71.9751 154.692 71.9785 154.715 71.982 154.737C72.3563 154.889 72.7207 155.064 73.0732 155.261C73.2749 155.374 73.4723 155.495 73.6655 155.622C73.9081 155.783 74.0962 156.014 74.2049 156.284C74.3137 156.554 74.3381 156.85 74.275 157.134C74.2119 157.418 74.0641 157.677 73.8511 157.876C73.6382 158.074 73.3699 158.205 73.0814 158.249L73.0519 158.253C73.0306 158.256 73.0124 158.259 72.9911 158.262C73.6306 159.784 74.5282 161.185 75.6445 162.403C76.7338 168.263 81.4121 168.819 86.4164 167.113H86.4194C86.9685 169.49 87.764 171.805 88.7932 174.019H97.2733C97.3037 173.925 97.331 173.828 97.3584 173.734C96.5735 173.783 95.7854 173.736 95.0119 173.595C95.6411 172.825 96.2703 172.05 96.8994 171.28C96.9135 171.266 96.9267 171.251 96.939 171.235C97.2581 170.841 97.5803 170.451 97.8994 170.057L97.8996 170.056C97.9166 168.849 97.7776 167.645 97.4861 166.474L97.4858 166.474Z" fill="#F0F0F0"/>
<path d="M200.459 88.5236H7.00168C5.27793 88.5216 3.62535 87.8383 2.40647 86.6237C1.1876 85.4091 0.501961 83.7622 0.499969 82.0445V6.47905C0.501961 4.76131 1.1876 3.11449 2.40647 1.89986C3.62535 0.685236 5.27793 0.00198444 7.00168 0H200.459C202.183 0.00198444 203.835 0.685236 205.054 1.89986C206.273 3.11449 206.959 4.76131 206.961 6.47905V82.0445C206.959 83.7623 206.273 85.4091 205.054 86.6237C203.835 87.8383 202.183 88.5216 200.459 88.5236Z" fill="#F0F0F0"/>
<path d="M155.34 84.3913H37.71C28.9444 84.3814 20.5406 80.907 14.3423 74.7303C8.14409 68.5537 4.65756 60.1792 4.64767 51.444V37.0829C4.65756 28.3478 8.14407 19.9732 14.3423 13.7965C20.5406 7.61983 28.9444 4.14541 37.71 4.1355H169.752C178.517 4.14541 186.921 7.61983 193.119 13.7965C199.318 19.9732 202.804 28.3478 202.814 37.0829C202.8 49.6255 197.793 61.6503 188.894 70.5193C179.994 79.3882 167.927 84.3771 155.34 84.3913Z" fill="white"/>
<path d="M124.996 25.7674H47.2415C46.7967 25.7674 46.3702 25.5914 46.0558 25.278C45.7413 24.9647 45.5647 24.5396 45.5647 24.0965C45.5647 23.6533 45.7413 23.2283 46.0558 22.9149C46.3702 22.6016 46.7967 22.4255 47.2415 22.4255H124.996C125.441 22.4255 125.868 22.6016 126.182 22.9149C126.497 23.2283 126.673 23.6533 126.673 24.0965C126.673 24.5396 126.497 24.9647 126.182 25.278C125.868 25.5914 125.441 25.7674 124.996 25.7674Z" fill="#F0F0F0"/>
<path d="M164.357 43.5953H47.2415C46.7967 43.5953 46.3702 43.4193 46.0558 43.1059C45.7413 42.7925 45.5647 42.3675 45.5647 41.9244C45.5647 41.4812 45.7413 41.0562 46.0558 40.7428C46.3702 40.4295 46.7967 40.2534 47.2415 40.2534H164.357C164.802 40.2534 165.229 40.4295 165.543 40.7428C165.858 41.0562 166.034 41.4812 166.034 41.9244C166.034 42.3675 165.858 42.7925 165.543 43.1059C165.229 43.4193 164.802 43.5953 164.357 43.5953Z" fill="#F0F0F0"/>
<path d="M164.357 61.4235H47.2415C46.7967 61.4235 46.3702 61.2474 46.0558 60.934C45.7413 60.6207 45.5647 60.1957 45.5647 59.7525C45.5647 59.3093 45.7413 58.8843 46.0558 58.571C46.3702 58.2576 46.7967 58.0815 47.2415 58.0815H164.357C164.802 58.0815 165.229 58.2576 165.543 58.571C165.858 58.8843 166.034 59.3093 166.034 59.7525C166.034 60.1957 165.858 60.6207 165.543 60.934C165.229 61.2474 164.802 61.4235 164.357 61.4235Z" fill="#F7A6B2"/>
<path d="M164.357 61.4235H47.2415C46.7967 61.4235 46.3702 61.2474 46.0558 60.934C45.7413 60.6207 45.5647 60.1957 45.5647 59.7525C45.5647 59.3093 45.7413 58.8843 46.0558 58.571C46.3702 58.2576 46.7967 58.0815 47.2415 58.0815H164.357C164.802 58.0815 165.229 58.2576 165.543 58.571C165.858 58.8843 166.034 59.3093 166.034 59.7525C166.034 60.1957 165.858 60.6207 165.543 60.934C165.229 61.2474 164.802 61.4235 164.357 61.4235Z" fill="#F0F0F0"/>
<path d="M153.022 30.7579C154.094 24.9347 156.6 19.8363 161.006 15.698C161.168 15.3934 161.445 15.1652 161.775 15.0635C162.106 14.9618 162.463 14.995 162.769 15.1557L174.183 21.1647C174.488 21.3261 174.717 21.6017 174.819 21.9311C174.921 22.2605 174.888 22.6168 174.727 22.9218L166.742 37.9818C166.58 38.2864 166.304 38.5146 165.973 38.6162C165.643 38.7179 165.285 38.6847 164.979 38.524L153.566 32.515C153.26 32.3536 153.031 32.078 152.929 31.7486C152.827 31.4192 152.86 31.0629 153.022 30.7579Z" fill="#F0F0F0"/>
<path d="M156.309 26.6702C156.45 23.6305 158.674 20.3419 161.442 16.9883C161.593 16.703 161.852 16.4893 162.162 16.3941C162.472 16.2989 162.806 16.3299 163.093 16.4804L172.902 21.6447C173.188 21.7958 173.403 22.0539 173.498 22.3624C173.594 22.6709 173.563 23.0046 173.412 23.2903L166.307 36.6916C166.155 36.9769 165.896 37.1906 165.586 37.2858C165.277 37.381 164.942 37.3499 164.655 37.1994L158.579 34.0003C157.304 33.327 156.348 32.1772 155.923 30.803C155.497 29.4288 155.636 27.9425 156.309 26.6702Z" fill="#FFF0D7"/>
<path d="M167.827 28.6095L160.167 24.6039C160.046 24.5398 159.955 24.4305 159.914 24.2998C159.874 24.1691 159.887 24.0277 159.951 23.9065C160.014 23.7854 160.124 23.6943 160.255 23.6534C160.386 23.6124 160.528 23.6248 160.65 23.6879L168.309 27.6936C168.43 27.7576 168.521 27.867 168.562 27.9977C168.602 28.1284 168.589 28.2698 168.526 28.3909C168.462 28.5121 168.352 28.6031 168.221 28.644C168.09 28.685 167.949 28.6726 167.827 28.6095Z" fill="#625C60"/>
<path d="M163.175 22.9736L161.49 22.0923C161.429 22.0609 161.375 22.0179 161.331 21.9657C161.288 21.9136 161.254 21.8533 161.234 21.7883C161.213 21.7233 161.206 21.655 161.212 21.5871C161.218 21.5193 161.238 21.4534 161.27 21.3931C161.301 21.3328 161.345 21.2793 161.397 21.2358C161.45 21.1922 161.51 21.1595 161.576 21.1393C161.641 21.1192 161.71 21.1121 161.778 21.1185C161.846 21.1248 161.912 21.1445 161.972 21.1764L163.657 22.0576C163.779 22.1217 163.869 22.231 163.91 22.3617C163.951 22.4924 163.938 22.6338 163.874 22.755C163.81 22.8761 163.701 22.9671 163.57 23.0081C163.439 23.0491 163.297 23.0367 163.175 22.9736Z" fill="#625C60"/>
<path d="M165.706 32.6361L158.047 28.6305C157.925 28.5665 157.834 28.4571 157.793 28.3264C157.753 28.1956 157.766 28.0541 157.83 27.9329C157.893 27.8117 158.003 27.7206 158.134 27.6797C158.265 27.6387 158.407 27.6513 158.529 27.7145L166.188 31.7201C166.31 31.7842 166.401 31.8935 166.441 32.0242C166.482 32.1549 166.469 32.2963 166.405 32.4175C166.341 32.5386 166.232 32.6297 166.101 32.6706C165.97 32.7116 165.828 32.6992 165.706 32.6361Z" fill="#625C60"/>
<path d="M166.766 30.6229L159.107 26.6172C159.046 26.5858 158.993 26.5428 158.949 26.4906C158.905 26.4385 158.872 26.3782 158.851 26.3132C158.831 26.2482 158.823 26.1799 158.829 26.1121C158.835 26.0442 158.855 25.9783 158.887 25.918C158.918 25.8577 158.962 25.8042 159.014 25.7607C159.067 25.7172 159.128 25.6844 159.193 25.6642C159.258 25.6441 159.327 25.637 159.395 25.6434C159.463 25.6497 159.529 25.6694 159.589 25.7013L167.249 29.7069C167.37 29.771 167.461 29.8803 167.502 30.011C167.542 30.1417 167.529 30.2831 167.465 30.4043C167.402 30.5254 167.292 30.6164 167.161 30.6574C167.03 30.6984 166.888 30.686 166.766 30.6229Z" fill="#625C60"/>
<path d="M235.554 132.956H231.592C231.405 132.956 231.219 132.993 231.046 133.065C230.873 133.136 230.716 133.241 230.583 133.373C230.451 133.505 230.346 133.661 230.274 133.834C230.202 134.006 230.165 134.191 230.165 134.378C230.165 134.755 230.015 135.117 229.748 135.383C229.48 135.65 229.117 135.8 228.739 135.8H215.53C215.343 135.8 215.157 135.763 214.984 135.691C214.811 135.62 214.654 135.515 214.521 135.383C214.389 135.251 214.284 135.095 214.212 134.922C214.141 134.75 214.104 134.565 214.104 134.378L213.842 132.937L213.859 132.956L213.842 132.937L211.448 129.895C211.37 129.794 211.269 129.712 211.154 129.656C211.038 129.6 210.911 129.572 210.783 129.573H206.293C206.069 129.573 205.854 129.662 205.695 129.82C205.537 129.978 205.448 130.192 205.447 130.416L205.355 132.937H203.657C203.301 132.937 202.948 133.007 202.618 133.143C202.289 133.279 201.989 133.478 201.737 133.729C201.485 133.98 201.285 134.279 201.149 134.607C201.012 134.935 200.942 135.287 200.942 135.642V153.263C200.942 153.578 201.004 153.89 201.126 154.182C201.247 154.473 201.424 154.738 201.648 154.961C201.872 155.184 202.137 155.36 202.429 155.481C202.722 155.602 203.035 155.664 203.351 155.664H235.554C236.193 155.663 236.805 155.41 237.256 154.96C237.708 154.51 237.962 153.899 237.963 153.263V135.357C237.963 135.041 237.9 134.729 237.779 134.438C237.658 134.147 237.481 133.882 237.257 133.659C237.033 133.436 236.768 133.26 236.476 133.139C236.183 133.018 235.87 132.956 235.554 132.956Z" fill="#FFF0D7"/>
<path d="M213.844 132.872H205.447V130.35C205.448 130.127 205.537 129.913 205.695 129.755C205.854 129.597 206.069 129.508 206.293 129.508H210.783C210.911 129.507 211.038 129.535 211.154 129.591C211.269 129.647 211.37 129.729 211.448 129.83L213.844 132.872Z" fill="#F7A6B2"/>
<path d="M218.143 153.725H204.123C203.679 153.724 203.254 153.548 202.94 153.236C202.626 152.923 202.45 152.499 202.449 152.057V148.236C202.45 147.793 202.626 147.369 202.94 147.057C203.254 146.744 203.679 146.568 204.123 146.568H220.95C221.394 146.568 221.82 146.744 222.133 147.057C222.447 147.369 222.624 147.793 222.624 148.236V149.259C222.623 150.443 222.15 151.578 221.31 152.415C220.47 153.252 219.331 153.723 218.143 153.725Z" fill="white"/>
<path d="M208.159 149.45H204.698C204.473 149.45 204.257 149.361 204.098 149.202C203.939 149.044 203.85 148.828 203.85 148.604C203.85 148.38 203.939 148.165 204.098 148.006C204.257 147.847 204.473 147.758 204.698 147.758H208.159C208.384 147.758 208.6 147.847 208.759 148.006C208.918 148.165 209.008 148.38 209.008 148.604C209.008 148.828 208.918 149.044 208.759 149.202C208.6 149.361 208.384 149.45 208.159 149.45Z" fill="#F7A6B2"/>
<path d="M219.911 152.117H204.698C204.587 152.118 204.476 152.096 204.373 152.054C204.27 152.011 204.176 151.949 204.097 151.87C204.018 151.792 203.955 151.698 203.913 151.596C203.87 151.493 203.848 151.383 203.848 151.272C203.848 151.16 203.87 151.05 203.913 150.948C203.955 150.845 204.018 150.751 204.097 150.673C204.176 150.594 204.27 150.532 204.373 150.49C204.476 150.447 204.587 150.426 204.698 150.426H219.911C220.136 150.426 220.352 150.515 220.511 150.674C220.671 150.832 220.76 151.047 220.76 151.272C220.76 151.496 220.671 151.711 220.511 151.87C220.352 152.028 220.136 152.117 219.911 152.117H219.911Z" fill="#F7A6B2"/>
<path d="M249.628 152.289H245.667C245.479 152.289 245.294 152.326 245.121 152.397C244.948 152.469 244.79 152.573 244.658 152.705C244.525 152.837 244.42 152.994 244.349 153.166C244.277 153.339 244.24 153.524 244.24 153.711C244.24 154.088 244.09 154.449 243.822 154.716C243.555 154.982 243.192 155.132 242.813 155.132H229.605C229.418 155.132 229.232 155.095 229.059 155.024C228.886 154.953 228.729 154.848 228.596 154.716C228.464 154.584 228.359 154.427 228.287 154.255C228.215 154.082 228.178 153.897 228.178 153.711L227.917 152.269L227.934 152.289L227.917 152.269L225.523 149.228C225.444 149.126 225.344 149.045 225.228 148.989C225.113 148.933 224.986 148.904 224.858 148.906H220.367C220.143 148.906 219.928 148.995 219.77 149.153C219.611 149.311 219.522 149.525 219.522 149.748L219.429 152.269H217.732C217.375 152.269 217.022 152.339 216.693 152.475C216.363 152.611 216.064 152.811 215.812 153.062C215.56 153.313 215.36 153.611 215.223 153.939C215.087 154.268 215.017 154.62 215.017 154.975V172.595C215.017 172.911 215.079 173.223 215.2 173.514C215.321 173.805 215.499 174.07 215.722 174.293C215.946 174.516 216.212 174.693 216.504 174.814C216.796 174.934 217.11 174.996 217.426 174.996H249.628C250.267 174.995 250.879 174.742 251.331 174.292C251.783 173.842 252.036 173.232 252.037 172.595V154.689C252.037 154.374 251.975 154.062 251.854 153.771C251.733 153.479 251.555 153.215 251.332 152.992C251.108 152.769 250.842 152.592 250.55 152.472C250.258 152.351 249.945 152.289 249.628 152.289Z" fill="#FFF0D7"/>
<path d="M227.918 152.204H219.522V149.683C219.522 149.46 219.611 149.245 219.77 149.087C219.928 148.929 220.143 148.841 220.367 148.84H224.858C224.986 148.839 225.113 148.868 225.228 148.924C225.344 148.979 225.444 149.061 225.523 149.162L227.918 152.204Z" fill="#F7A6B2"/>
<path d="M232.218 173.057H218.198C217.754 173.057 217.328 172.881 217.015 172.568C216.701 172.255 216.524 171.831 216.524 171.389V167.568C216.524 167.126 216.701 166.702 217.015 166.389C217.328 166.077 217.754 165.901 218.198 165.9H235.025C235.469 165.901 235.894 166.077 236.208 166.389C236.522 166.702 236.698 167.126 236.699 167.568V168.592C236.697 169.776 236.225 170.911 235.385 171.748C234.545 172.585 233.406 173.056 232.218 173.057Z" fill="white"/>
<path d="M222.233 168.782H218.773C218.548 168.782 218.332 168.693 218.173 168.535C218.014 168.376 217.924 168.161 217.924 167.937C217.924 167.712 218.014 167.497 218.173 167.339C218.332 167.18 218.548 167.091 218.773 167.091H222.233C222.459 167.091 222.674 167.18 222.834 167.339C222.993 167.497 223.082 167.712 223.082 167.937C223.082 168.161 222.993 168.376 222.834 168.535C222.674 168.693 222.459 168.782 222.233 168.782Z" fill="#F7A6B2"/>
<path d="M233.986 171.45H218.773C218.661 171.45 218.551 171.429 218.448 171.386C218.344 171.344 218.251 171.281 218.172 171.203C218.093 171.124 218.03 171.031 217.987 170.928C217.944 170.825 217.922 170.715 217.922 170.604C217.922 170.493 217.944 170.383 217.987 170.28C218.03 170.177 218.093 170.084 218.172 170.005C218.251 169.927 218.344 169.865 218.448 169.822C218.551 169.78 218.661 169.758 218.773 169.758H233.986C234.211 169.758 234.427 169.847 234.586 170.006C234.745 170.165 234.835 170.38 234.835 170.604C234.835 170.828 234.745 171.044 234.586 171.202C234.427 171.361 234.211 171.45 233.986 171.45H233.986Z" fill="#F7A6B2"/>
<path d="M186.691 168.361L183.419 168.361L181.863 155.787H186.692L186.691 168.361Z" fill="#FFEAE3"/>
<path d="M176.817 173.171C176.819 173.537 176.965 173.886 177.223 174.145C177.482 174.403 177.833 174.55 178.2 174.552H184.358L184.549 174.158L185.42 172.367L185.757 174.158L185.832 174.552H188.155L188.121 174.155L187.502 166.753L186.692 166.704L183.191 166.497L182.331 166.445V168.655C181.678 169.347 176.557 171.962 176.817 173.171Z" fill="#29282C"/>
<path d="M240.855 143.183L239.274 146.037L227.474 141.318L229.808 137.106L240.855 143.183Z" fill="#FFEAE3"/>
<path d="M240.309 154.122C240.63 154.297 241.008 154.338 241.36 154.238C241.713 154.137 242.011 153.901 242.19 153.583L245.166 148.21L244.912 147.853L243.759 146.228L245.496 146.799L245.878 146.924L247.001 144.898L246.636 144.735L239.834 141.698L239.399 142.381L237.525 145.335L237.064 146.061L239.005 147.129C239.298 148.032 239.12 153.764 240.309 154.122Z" fill="#29282C"/>
<path d="M192.165 85.4858L204.526 90.716C204.526 90.716 208.48 99.1295 205.745 100.335V122.578L233.979 138.861L225.469 153.026C225.469 153.026 214.546 150.215 214.66 147.648C214.774 145.081 216.033 144.065 212.283 143.736C208.532 143.406 206.407 143.681 206.509 141.391C206.611 139.1 193.263 127.189 193.263 127.189L192.165 85.4858Z" fill="#29282C"/>
<path d="M195.126 89.7562L191.992 86.2473C191.992 86.2473 184.952 97.7657 184.979 100.132C185.005 102.498 179.004 114.698 179.004 114.698L171.562 158.238C171.562 158.238 185.916 161.639 187.021 161.733C188.126 161.827 189.99 162.407 188.818 160.203C187.646 157.999 188.818 157.999 188.818 157.999L189.538 124.477L195.126 101.42V89.7562Z" fill="#29282C"/>
<path d="M193.482 56.0274L199.484 54.592L202.955 58.8342C204.539 60.3192 205.72 62.1796 206.388 64.2421C207.056 66.3045 207.189 68.502 206.775 70.6296L203.565 87.1274C203.565 87.1274 209.327 92.3905 208.607 95.2613C207.439 99.9174 194.556 95.8057 192.339 96.1316C190.121 96.4575 187.241 92.8822 186.761 90.8421C186.28 88.802 188.239 83.9056 188.921 84.0174C189.604 84.1292 187.038 73.8887 187.038 73.8887C187.038 73.8887 187.241 67.032 189.641 65.1182C191.114 63.9234 192.312 62.4281 193.155 60.7329L193.482 56.0274Z" fill="#F7A6B2"/>
<path d="M167.426 30.1612C167.43 30.5634 167.522 30.9598 167.696 31.323C167.869 31.6862 168.12 32.0074 168.43 32.2646C168.741 32.5218 169.103 32.7087 169.493 32.8125C169.883 32.9162 170.291 32.9343 170.689 32.8655L178.244 44.4811L181.981 43.1886L172.907 29.4581C172.741 28.7996 172.339 28.2247 171.776 27.8423C171.213 27.46 170.529 27.2966 169.853 27.3833C169.177 27.47 168.557 27.8006 168.11 28.3126C167.662 28.8246 167.419 29.4824 167.425 30.1612H167.426Z" fill="#FFEAE3"/>
<path d="M197.72 70.6543C197.72 70.6543 200.565 64.584 198.402 61.886C196.238 59.188 194.656 56.4453 193.445 55.7023C192.234 54.9594 187.408 46.3568 186.191 46.0999C184.975 45.843 185.92 44.4484 184.222 43.6999C182.523 42.9514 182.035 42.9458 182.041 42.4598C182.047 41.9738 177.899 36.1382 177.899 36.1382L173.636 38.7752L184.05 60.0052L197.72 70.6543Z" fill="#F7A6B2"/>
<path d="M170.843 127.461C165.389 120.232 162.237 112.148 162.134 102.932C161.958 102.435 161.987 101.889 162.215 101.414C162.442 100.939 162.85 100.573 163.348 100.396L181.938 93.8419C182.436 93.6668 182.984 93.6959 183.461 93.9227C183.938 94.1495 184.305 94.5556 184.482 95.0519L193.191 119.581C193.367 120.078 193.338 120.623 193.11 121.099C192.882 121.574 192.475 121.94 191.977 122.116L173.387 128.671C172.889 128.846 172.341 128.817 171.864 128.59C171.387 128.363 171.02 127.957 170.843 127.461Z" fill="#F0F0F0"/>
<path d="M169.638 119.549C166.358 116.244 164.954 110.349 164.039 103.78C163.875 103.314 163.902 102.803 164.115 102.358C164.328 101.913 164.71 101.57 165.176 101.405L181.153 95.7722C181.619 95.6082 182.132 95.6354 182.579 95.8479C183.026 96.0603 183.37 96.4406 183.535 96.9054L191.285 118.733C191.45 119.198 191.423 119.709 191.209 120.154C190.996 120.6 190.615 120.942 190.148 121.107L180.251 124.597C178.172 125.327 175.887 125.206 173.897 124.26C171.908 123.314 170.376 121.619 169.638 119.549Z" fill="#FFF0D7"/>
<path d="M183.749 108.664L171.304 113.091C171.106 113.161 170.888 113.15 170.698 113.061C170.508 112.971 170.362 112.81 170.291 112.612C170.22 112.415 170.231 112.198 170.321 112.008C170.411 111.819 170.573 111.673 170.771 111.603L183.216 107.176C183.314 107.141 183.418 107.126 183.522 107.131C183.626 107.136 183.728 107.162 183.822 107.206C183.916 107.25 184.001 107.313 184.07 107.39C184.14 107.467 184.194 107.557 184.229 107.654C184.264 107.752 184.28 107.856 184.274 107.959C184.269 108.063 184.244 108.165 184.199 108.258C184.154 108.352 184.092 108.436 184.015 108.506C183.937 108.575 183.847 108.629 183.749 108.664Z" fill="#625C60"/>
<path d="M172.58 108.036L169.842 109.01C169.644 109.08 169.427 109.069 169.237 108.979C169.048 108.889 168.901 108.728 168.831 108.531C168.76 108.334 168.771 108.117 168.861 107.928C168.95 107.739 169.112 107.593 169.309 107.522L172.047 106.548C172.245 106.478 172.463 106.489 172.653 106.579C172.842 106.669 172.988 106.83 173.059 107.027C173.13 107.224 173.119 107.441 173.029 107.63C172.939 107.82 172.778 107.966 172.58 108.036Z" fill="#625C60"/>
<path d="M186.093 115.207L173.648 119.633C173.55 119.668 173.446 119.683 173.342 119.678C173.238 119.673 173.136 119.648 173.042 119.603C172.947 119.559 172.863 119.496 172.793 119.419C172.723 119.342 172.669 119.253 172.634 119.155C172.599 119.057 172.584 118.953 172.589 118.85C172.594 118.746 172.62 118.645 172.665 118.551C172.709 118.457 172.772 118.373 172.849 118.303C172.926 118.234 173.017 118.18 173.115 118.145L185.56 113.718C185.658 113.683 185.762 113.668 185.866 113.673C185.97 113.679 186.072 113.704 186.166 113.748C186.26 113.793 186.344 113.855 186.414 113.932C186.484 114.009 186.538 114.099 186.573 114.197C186.608 114.295 186.623 114.398 186.618 114.502C186.613 114.605 186.587 114.707 186.543 114.801C186.498 114.895 186.435 114.979 186.358 115.048C186.281 115.118 186.191 115.172 186.093 115.207Z" fill="#625C60"/>
<path d="M184.921 111.935L172.476 116.362C172.378 116.397 172.274 116.412 172.17 116.407C172.066 116.402 171.964 116.376 171.87 116.332C171.776 116.288 171.691 116.225 171.621 116.148C171.552 116.071 171.498 115.981 171.463 115.884C171.428 115.786 171.412 115.682 171.417 115.579C171.423 115.475 171.448 115.373 171.493 115.28C171.537 115.186 171.6 115.102 171.677 115.032C171.755 114.963 171.845 114.909 171.943 114.874L184.388 110.447C184.586 110.377 184.804 110.388 184.994 110.477C185.184 110.567 185.33 110.728 185.401 110.926C185.472 111.123 185.461 111.34 185.371 111.53C185.281 111.719 185.119 111.865 184.921 111.935Z" fill="#625C60"/>
<path d="M194.21 53.8643C197.769 53.8643 200.654 50.9895 200.654 47.4431C200.654 43.8968 197.769 41.022 194.21 41.022C190.651 41.022 187.766 43.8968 187.766 47.4431C187.766 50.9895 190.651 53.8643 194.21 53.8643Z" fill="#FFEAE3"/>
<path d="M187.435 46.6053C187.777 46.8326 188.185 46.9411 188.595 46.9141C188.689 46.4226 188.705 45.9192 188.64 45.423C188.884 45.8683 189.068 46.3441 189.186 46.8377C190.332 46.5884 190.281 46.2487 191.462 46.4265C191.786 46.4946 192.093 46.6285 192.363 46.8199C192.634 47.0112 192.861 47.256 193.032 47.5388C193.204 47.8217 193.315 48.1366 193.358 48.464C193.402 48.7914 193.378 49.1243 193.287 49.442C193.537 48.8962 194.576 49.1443 194.751 49.7688C194.934 50.4261 194.532 51.0904 194.147 51.6544C192.772 53.6707 196.328 57.3873 194.953 59.4036L194.762 59.6316C195.964 59.0081 197.101 58.2677 198.157 57.4212C197.977 56.6247 197.945 55.8018 198.065 54.994C198.214 55.6595 198.58 56.2572 199.105 56.6944C202.996 53.6542 207.676 49.2776 206.815 48.2154L204.196 43.6151C201.444 38.7826 194.806 36.8413 190.693 40.5937C190.586 40.6937 190.342 40.6274 190.234 40.7328C189.052 41.0378 187.54 41.5906 186.768 42.5318C185.999 43.4746 186.425 45.9259 187.435 46.6053Z" fill="#29282C"/>
<path d="M192.476 96.3313C187.233 93.5458 183.119 89.6186 180.499 84.1791C180.257 83.9329 180.123 83.601 180.126 83.2563C180.129 82.9116 180.27 82.5822 180.516 82.3403L189.726 73.327C189.973 73.0858 190.306 72.952 190.652 72.9551C190.998 72.9582 191.328 73.098 191.571 73.3437L203.547 85.4958C203.789 85.7421 203.924 86.0739 203.921 86.4187C203.917 86.7634 203.777 87.0928 203.531 87.3346L194.321 96.3479C194.074 96.5892 193.741 96.7229 193.395 96.7198C193.049 96.7167 192.718 96.577 192.476 96.3313Z" fill="#F0F0F0"/>
<path d="M189.565 91.9695C186.701 90.9129 184.232 87.8027 181.865 84.157C181.639 83.9264 181.513 83.6156 181.516 83.2927C181.519 82.9699 181.65 82.6614 181.881 82.4349L189.796 74.6887C190.027 74.4628 190.339 74.3375 190.663 74.3404C190.987 74.3433 191.297 74.4741 191.524 74.7042L202.181 85.518C202.408 85.7486 202.534 86.0595 202.531 86.3823C202.528 86.7052 202.397 87.0137 202.166 87.2402L197.263 92.0388C196.232 93.0453 194.842 93.6033 193.399 93.5903C191.956 93.5773 190.577 92.9944 189.565 91.9695Z" fill="#FFF0D7"/>
<path d="M194.915 81.6217L188.76 87.6787C188.712 87.7265 188.654 87.7642 188.591 87.7899C188.528 87.8155 188.46 87.8285 188.392 87.8281C188.324 87.8277 188.257 87.8139 188.194 87.7875C188.131 87.7611 188.074 87.7226 188.026 87.6743C187.978 87.626 187.94 87.5687 187.915 87.5057C187.889 87.4428 187.876 87.3755 187.876 87.3075C187.877 87.2396 187.891 87.1724 187.917 87.1098C187.944 87.0472 187.982 86.9904 188.031 86.9427L194.186 80.8857C194.234 80.8379 194.292 80.8002 194.355 80.7745C194.418 80.7489 194.485 80.7359 194.554 80.7363C194.622 80.7367 194.689 80.7505 194.752 80.7769C194.815 80.8033 194.872 80.8418 194.92 80.8901C194.968 80.9385 195.006 80.9957 195.031 81.0587C195.057 81.1216 195.07 81.1889 195.069 81.2569C195.069 81.3248 195.055 81.392 195.029 81.4546C195.002 81.5172 194.964 81.574 194.915 81.6217Z" fill="#625C60"/>
<path d="M188.114 84.3279L186.76 85.6605C186.662 85.7569 186.53 85.8105 186.392 85.8097C186.255 85.8088 186.123 85.7535 186.026 85.6559C185.93 85.5583 185.876 85.4264 185.877 85.2892C185.877 85.1521 185.933 85.0209 186.031 84.9245L187.385 83.5919C187.433 83.544 187.491 83.5061 187.554 83.4804C187.617 83.4546 187.685 83.4416 187.753 83.4419C187.821 83.4422 187.889 83.456 187.952 83.4824C188.015 83.5088 188.072 83.5473 188.12 83.5957C188.168 83.6441 188.206 83.7014 188.231 83.7644C188.257 83.8275 188.27 83.8949 188.27 83.9629C188.269 84.0309 188.255 84.0982 188.228 84.1608C188.202 84.2235 188.163 84.2802 188.114 84.3279Z" fill="#625C60"/>
<path d="M198.122 84.8573L191.967 90.9143C191.918 90.9621 191.861 90.9999 191.798 91.0255C191.735 91.0511 191.667 91.0641 191.599 91.0637C191.531 91.0633 191.463 91.0495 191.4 91.0231C191.338 90.9967 191.281 90.9582 191.233 90.9099C191.185 90.8616 191.147 90.8043 191.121 90.7414C191.096 90.6784 191.083 90.6111 191.083 90.5431C191.083 90.4752 191.097 90.408 191.124 90.3454C191.15 90.2828 191.189 90.226 191.237 90.1783L197.392 84.1213C197.441 84.0735 197.498 84.0358 197.561 84.0101C197.624 83.9845 197.692 83.9715 197.76 83.9719C197.828 83.9723 197.896 83.9861 197.959 84.0125C198.021 84.0389 198.078 84.0774 198.126 84.1257C198.174 84.1741 198.212 84.2313 198.238 84.2943C198.264 84.3572 198.277 84.4245 198.276 84.4925C198.276 84.5604 198.262 84.6276 198.235 84.6902C198.209 84.7528 198.17 84.8096 198.122 84.8573Z" fill="#625C60"/>
<path d="M196.518 83.2393L190.363 89.2963C190.315 89.3442 190.258 89.3821 190.194 89.4079C190.131 89.4336 190.064 89.4467 189.995 89.4464C189.927 89.446 189.86 89.4323 189.797 89.4059C189.734 89.3795 189.677 89.341 189.629 89.2926C189.581 89.2442 189.543 89.1868 189.517 89.1238C189.491 89.0608 189.478 88.9934 189.479 88.9253C189.479 88.8573 189.493 88.7901 189.52 88.7274C189.547 88.6648 189.585 88.608 189.634 88.5603L195.789 82.5033C195.887 82.407 196.019 82.3534 196.157 82.3543C196.294 82.3551 196.426 82.4105 196.523 82.508C196.619 82.6056 196.673 82.7375 196.672 82.8746C196.672 83.0117 196.616 83.1429 196.518 83.2393V83.2393Z" fill="#625C60"/>
<path d="M183.324 108.917C183.248 108.522 183.258 108.116 183.355 107.725C183.452 107.335 183.633 106.97 183.885 106.656C184.137 106.342 184.455 106.086 184.816 105.907C185.177 105.727 185.573 105.628 185.977 105.616L191.041 92.7266L194.963 93.2458L188.836 108.511C188.806 109.189 188.527 109.833 188.052 110.32C187.578 110.807 186.941 111.104 186.261 111.154C185.582 111.204 184.907 111.004 184.366 110.592C183.825 110.179 183.454 109.584 183.324 108.917Z" fill="#FFEAE3"/>
<path d="M204.855 63.1929C204.855 63.1929 208.864 68.5713 207.287 71.6469C205.71 74.7226 204.712 77.7256 203.675 78.6954C202.639 79.6652 199.641 89.0576 198.501 89.5524C197.361 90.0472 198.568 91.2246 197.054 92.2973C195.541 93.37 195.064 93.4729 195.168 93.9479C195.271 94.4229 192.382 100.969 192.382 100.969L187.675 99.2373L197.699 64.4924L204.855 63.1929Z" fill="#F7A6B2"/>
<path d="M280.047 175L27.9407 174.737C27.8208 174.737 27.7059 174.689 27.6213 174.605C27.5366 174.52 27.4891 174.406 27.4891 174.286C27.4891 174.167 27.5366 174.052 27.6213 173.967C27.7059 173.883 27.8208 173.835 27.9407 173.835L280.047 174.097C280.107 174.097 280.166 174.109 280.221 174.131C280.276 174.154 280.326 174.187 280.368 174.229C280.41 174.271 280.444 174.321 280.467 174.376C280.49 174.43 280.501 174.489 280.501 174.549C280.501 174.608 280.49 174.667 280.467 174.722C280.444 174.777 280.41 174.826 280.368 174.868C280.326 174.91 280.276 174.943 280.221 174.966C280.166 174.989 280.107 175 280.047 175Z" fill="#F0F0F0"/>
<path d="M95.2118 75.5795C92.2264 70.4607 90.8035 64.9634 91.4502 58.9644C91.3745 58.6281 91.4357 58.2755 91.6205 57.9841C91.8053 57.6926 92.0985 57.4861 92.4359 57.4099L105.028 54.579C105.365 54.5035 105.719 54.5645 106.012 54.7486C106.304 54.9328 106.511 55.225 106.588 55.5612L110.349 72.1762C110.425 72.5126 110.364 72.8652 110.179 73.1566C109.994 73.448 109.701 73.6545 109.364 73.7308L96.7718 76.5617C96.4342 76.6372 96.0804 76.5762 95.788 76.392C95.4955 76.2079 95.2883 75.9156 95.2118 75.5795Z" fill="#F0F0F0"/>
<path d="M95.0415 70.3437C93.1653 67.943 92.7091 64.0032 92.6233 59.6621C92.5523 59.3471 92.6097 59.0169 92.7827 58.7439C92.9558 58.471 93.2304 58.2776 93.5464 58.2062L104.368 55.7733C104.684 55.7025 105.016 55.7597 105.289 55.9321C105.563 56.1046 105.757 56.3783 105.829 56.6931L109.176 71.4783C109.247 71.7933 109.19 72.1235 109.017 72.3964C108.844 72.6694 108.569 72.8628 108.253 72.9342L101.549 74.4413C100.141 74.7563 98.6653 74.5017 97.4452 73.7335C96.2252 72.9653 95.3607 71.7463 95.0415 70.3437Z" fill="#FFF0D7"/>
<path d="M99.2509 62.1825C99.4714 61.929 99.7682 61.7534 100.097 61.6819C100.426 61.6105 100.769 61.647 101.075 61.786C101.382 61.9481 101.627 62.2049 101.774 62.5178C101.921 62.8306 101.963 63.1827 101.892 63.521C101.773 64.303 101.363 65.0149 101.326 65.8156C101.293 66.1664 101.354 66.5196 101.504 66.8387C101.654 67.1578 101.887 67.431 102.179 67.6299C102.626 67.9004 103.086 67.2308 102.637 66.9589C101.898 66.5116 102.146 65.5287 102.36 64.8582C102.628 64.021 102.907 63.1676 102.576 62.305C102.429 61.9438 102.194 61.625 101.892 61.3778C101.59 61.1305 101.23 60.9627 100.846 60.8897C100.462 60.8167 100.066 60.8408 99.6939 60.9598C99.3217 61.0788 98.9853 61.2889 98.7156 61.5709C98.3631 61.9497 98.8939 62.5661 99.2509 62.1825Z" fill="#625C60"/>
<path d="M102.837 69.9685C103.287 69.9685 103.651 69.6052 103.651 69.1571C103.651 68.709 103.287 68.3457 102.837 68.3457C102.387 68.3457 102.023 68.709 102.023 69.1571C102.023 69.6052 102.387 69.9685 102.837 69.9685Z" fill="#625C60"/>
<path d="M23.2384 40.2418C20.253 35.1231 18.8301 29.6257 19.4768 23.6268C19.4011 23.2904 19.4623 22.9378 19.6471 22.6464C19.8319 22.355 20.1251 22.1485 20.4625 22.0722L33.0544 19.2413C33.3919 19.1658 33.7457 19.2268 34.0382 19.411C34.3307 19.5951 34.5379 19.8874 34.6144 20.2236L38.3759 36.8386C38.4517 37.1749 38.3905 37.5275 38.2057 37.819C38.0209 38.1104 37.7276 38.3169 37.3903 38.3931L24.7984 41.2241C24.4608 41.2996 24.107 41.2385 23.8146 41.0544C23.5221 40.8702 23.3149 40.578 23.2384 40.2418Z" fill="#F0F0F0"/>
<path d="M23.0681 35.0061C21.1918 32.6054 20.7357 28.6656 20.6498 24.3244C20.5789 24.0094 20.6362 23.6792 20.8093 23.4063C20.9823 23.1333 21.257 22.9399 21.5729 22.8685L32.3946 20.4356C32.7107 20.3649 33.0421 20.422 33.316 20.5945C33.5899 20.7669 33.784 21.0406 33.8556 21.3555L37.2029 36.1406C37.2739 36.4556 37.2165 36.7858 37.0434 37.0588C36.8704 37.3317 36.5957 37.5251 36.2797 37.5965L29.5759 39.1037C28.1678 39.4186 26.6918 39.164 25.4718 38.3959C24.2517 37.6277 23.3873 36.4086 23.0681 35.0061Z" fill="#FFF0D7"/>
<path d="M28.7243 36.1331C29.3545 36.1331 29.8654 35.6239 29.8654 34.9959C29.8654 34.3678 29.3545 33.8586 28.7243 33.8586C28.094 33.8586 27.5831 34.3678 27.5831 34.9959C27.5831 35.6239 28.094 36.1331 28.7243 36.1331Z" fill="#625C60"/>
<path d="M30.088 24.1952C29.6488 23.682 28.8451 23.7635 28.1802 23.8898C27.4893 23.9898 26.8149 24.1812 26.1748 24.4587C25.8552 24.5993 25.5666 24.8016 25.3257 25.0538C25.0849 25.3061 24.8966 25.6034 24.7716 25.9286C24.506 26.7402 24.7952 27.6222 25.1422 28.4028C25.8101 29.9041 26.6967 31.2991 27.7733 32.5425L28.3173 32.7936C29.1636 31.7192 29.7856 30.4869 30.1468 29.1693C30.5079 27.8517 30.6008 26.4754 30.4201 25.1215C30.3995 24.7876 30.2843 24.4665 30.088 24.1952Z" fill="#625C60"/>
</g>
<defs>
<clipPath id="clip0_6_1641">
<rect width="280" height="175" fill="white" transform="translate(0.5)"/>
</clipPath>
</defs>
</svg>
