<svg width="155" height="175" viewBox="0 0 155 175" fill="none" xmlns="http://www.w3.org/2000/svg">
<g clip-path="url(#clip0_6_1583)">
<path d="M75.5484 73.3764H97.85C97.9226 73.3764 97.9923 73.3474 98.0437 73.2958C98.095 73.2443 98.1239 73.1743 98.1239 73.1014C98.1239 73.0285 98.095 72.9585 98.0437 72.907C97.9923 72.8554 97.9226 72.8264 97.85 72.8264H75.5484C75.4758 72.8264 75.4061 72.8554 75.3547 72.907C75.3034 72.9585 75.2745 73.0285 75.2745 73.1014C75.2745 73.1743 75.3034 73.2443 75.3547 73.2958C75.4061 73.3474 75.4758 73.3764 75.5484 73.3764Z" fill="#29282C"/>
<path d="M85.8227 47.2048C85.3303 47.4563 84.955 47.8908 84.7767 48.4158C84.5984 48.9408 84.6312 49.515 84.8682 50.0161C84.9179 50.1172 84.9759 50.214 85.0416 50.3055L80.8425 56.4224L83.1842 59.6537L88.034 50.6499C88.3908 50.3472 88.6377 49.9344 88.7362 49.476C88.8348 49.0175 88.7794 48.5392 88.5787 48.1157C88.4622 47.8758 88.2998 47.6613 88.1008 47.4845C87.9017 47.3076 87.6699 47.1718 87.4186 47.0849C87.1673 46.998 86.9014 46.9616 86.6361 46.9779C86.3708 46.9942 86.1112 47.0627 85.8723 47.1797C85.8557 47.1878 85.8392 47.1962 85.8227 47.2048Z" fill="#FFEAE3"/>
<path d="M60.9123 48.4378C60.4558 48.6998 60.0608 49.0574 59.7542 49.4864C59.4476 49.9154 59.2366 50.4056 59.1356 50.9237C59.0345 51.4419 59.0458 51.9758 59.1686 52.4892C59.2915 53.0026 59.523 53.4834 59.8474 53.8989L65.0597 60.5743L76.6002 69.1395C76.6002 69.1395 84.7279 62.0102 84.793 59.7942C84.8581 57.5783 83.9883 57.1089 84.8581 57.5783C85.7279 58.0476 86.5199 57.6957 86.2213 57.448C85.9227 57.2003 86.028 57.1729 86.2091 56.75C86.3902 56.327 87.0265 54.3327 87.0265 54.3327L83.8572 51.7352C83.8572 51.7352 80.8989 53.537 80.7041 54.3843C80.5093 55.2315 81.5738 54.8536 80.5093 55.2315C79.4447 55.6094 77.8702 54.5071 79.1312 55.7035C80.3922 56.9 80.3523 57.4758 79.3077 57.5658C78.2631 57.6558 76.614 60.5755 76.614 60.5755L65.3423 49.0535C64.7753 48.474 64.0332 48.0993 63.2318 47.9879C62.4304 47.8765 61.6148 48.0347 60.9123 48.4378Z" fill="#F7A6B2"/>
<path d="M59.7796 174.733H25.1692C24.4569 174.732 23.774 174.447 23.2703 173.942C22.7666 173.436 22.4832 172.75 22.4823 172.035V142.784C22.4832 142.068 22.7666 141.383 23.2703 140.877C23.774 140.371 24.4569 140.087 25.1692 140.086H59.7796C60.492 140.087 61.1749 140.371 61.6786 140.877C62.1823 141.383 62.4657 142.068 62.4665 142.784V172.035C62.4657 172.75 62.1823 173.436 61.6786 173.942C61.1749 174.447 60.492 174.732 59.7796 174.733Z" fill="#F0F0F0"/>
<path d="M6.87044 134.114L6.85674 137.143L18.7471 138.639L18.7671 134.168L6.87044 134.114Z" fill="#FFEAE3"/>
<path d="M8.27167 133.33L8.54954 138.39L6.3908 138.38L3.06067 143.175C2.89622 143.412 2.66069 143.59 2.38845 143.683C2.1162 143.776 1.8215 143.779 1.54738 143.692C1.27326 143.604 1.03407 143.431 0.864724 143.198C0.69538 142.965 0.60475 142.683 0.60607 142.395L0.6333 136.372L2.77333 135.343L0.639827 134.928L0.65009 132.657L8.27167 133.33Z" fill="#29282C"/>
<path d="M106.168 70.9771C98.8662 69.1522 92.5972 65.565 87.6964 59.6434C87.3228 59.4136 87.0552 59.0444 86.9524 58.6167C86.8496 58.1891 86.9199 57.738 87.148 57.3623L95.6728 43.3556C95.9017 42.9805 96.2695 42.7119 96.6954 42.6086C97.1213 42.5054 97.5706 42.576 97.9447 42.805L116.416 54.1387C116.79 54.3685 117.057 54.7377 117.16 55.1654C117.263 55.593 117.193 56.0441 116.965 56.4198L108.44 70.4265C108.211 70.8016 107.843 71.0702 107.417 71.1735C106.991 71.2767 106.542 71.2061 106.168 70.9771Z" fill="#F0F0F0"/>
<path d="M101.243 66.4796C97.3981 66.0582 93.4025 62.9731 89.3675 59.1933C89.0176 58.9781 88.767 58.6323 88.6707 58.2318C88.5744 57.8313 88.6403 57.4088 88.8539 57.057L96.1803 45.0194C96.3946 44.6681 96.739 44.4165 97.1379 44.3198C97.5368 44.2231 97.9576 44.2893 98.308 44.5037L114.745 54.5891C115.095 54.8044 115.346 55.1502 115.442 55.5507C115.538 55.9512 115.472 56.3737 115.259 56.7255L110.72 64.1825C109.765 65.7474 108.231 66.8681 106.454 67.2987C104.678 67.7294 102.803 67.4348 101.243 66.4796Z" fill="#FFF0D7"/>
<path d="M104.614 52.0157L98.9269 61.4177C98.8821 61.4918 98.8232 61.5563 98.7535 61.6076C98.6839 61.6588 98.6049 61.6958 98.521 61.7164C98.4372 61.737 98.3501 61.7408 98.2648 61.7275C98.1794 61.7143 98.0975 61.6844 98.0237 61.6394C97.9499 61.5944 97.8857 61.5352 97.8347 61.4653C97.7837 61.3954 97.7468 61.316 97.7264 61.2318C97.7059 61.1476 97.7021 61.0602 97.7153 60.9745C97.7285 60.8888 97.7584 60.8066 97.8032 60.7325L103.49 51.3305C103.535 51.2564 103.594 51.1919 103.663 51.1406C103.733 51.0894 103.812 51.0524 103.896 51.0318C103.98 51.0112 104.067 51.0074 104.152 51.0206C104.237 51.0339 104.319 51.0638 104.393 51.1088C104.467 51.1538 104.531 51.213 104.582 51.2829C104.633 51.3528 104.67 51.4322 104.69 51.5164C104.711 51.6006 104.715 51.688 104.702 51.7737C104.688 51.8594 104.658 51.9416 104.614 52.0157Z" fill="#6868AA"/>
<path d="M107.084 53.5218L101.397 62.9238C101.306 63.0731 101.16 63.1803 100.991 63.2216C100.822 63.263 100.643 63.2353 100.494 63.1445C100.345 63.0537 100.239 62.9074 100.197 62.7375C100.156 62.5677 100.183 62.3882 100.273 62.2386L105.96 52.8366C106.051 52.6873 106.197 52.5801 106.366 52.5388C106.535 52.4974 106.714 52.5251 106.863 52.6159C107.011 52.7067 107.118 52.8531 107.16 53.0229C107.201 53.1927 107.174 53.3722 107.084 53.5218V53.5218Z" fill="#6868AA"/>
<path d="M68.6285 83.5787C68.6285 83.5787 67.4289 102.15 66.4376 105.027C65.3613 108.139 65.5009 112.863 63.8851 117.387C63.3867 118.784 62.8773 120.2 62.3679 121.605C62.2666 121.888 62.1625 122.171 62.0612 122.455C61.3957 124.283 60.7302 126.081 60.0948 127.781C60.0045 128.02 59.9141 128.257 59.8265 128.49C59.8237 128.496 59.8237 128.501 59.821 128.504C57.7232 134.045 55.9266 138.403 55.2091 139.123C54.4423 139.893 49.2608 140.212 42.8578 140.3C30.9913 140.46 14.9264 139.83 14.9264 139.83L14.9511 133.349C14.9511 133.349 15.0935 133.308 15.3591 133.228C15.8493 133.085 16.7613 132.818 17.9526 132.464C22.9287 130.99 32.7906 128.023 37.3066 126.384C38.5828 125.922 39.4318 125.565 39.6235 125.375C40.7463 124.275 41.242 125.375 41.9541 126.475C42.6661 127.575 42.8852 126.475 43.8164 125.666C44.7475 124.858 46.8453 125.969 46.8453 125.969C46.8453 125.969 46.8645 125.237 46.8946 124.071C46.9384 122.35 47.0041 119.672 47.0699 116.991C47.0671 116.988 47.0671 116.988 47.0699 116.988C47.0945 115.979 47.1192 114.97 47.1411 114.013C47.1602 113.27 47.1767 112.558 47.1931 111.898C47.2369 109.921 47.267 108.425 47.267 108.051C47.267 106.831 47.2671 107.779 48.2283 107.042C48.3719 106.929 48.5082 106.807 48.6364 106.677C48.8416 106.492 49.0303 106.289 49.2005 106.072C49.2717 105.918 48.8308 106.127 48.2584 106.011C47.9482 105.948 47.6612 105.801 47.4286 105.585C46.2209 104.493 47.5245 101.144 47.5245 101.144C44.7804 95.6336 44.9775 91.113 46.262 87.6318C47.2216 85.1312 48.7459 82.8882 50.715 81.0792C51.4649 80.3631 52.2811 79.7205 53.1524 79.1599L53.2373 78.7061L54.1657 73.6659C56.1969 72.5324 58.544 72.1042 60.8425 72.4477C62.563 72.6994 64.2288 73.2414 65.7693 74.0508C67.0275 74.6858 68.2083 75.4645 69.2885 76.3716L68.6285 83.5787Z" fill="#29282C"/>
<path d="M43.3952 167.72L46.3995 168.001L48.9305 156.24L44.4967 155.827L43.3952 167.72Z" fill="#FFEAE3"/>
<path d="M52.0487 172.329L47.5848 168.576L47.7847 166.417L46.7467 166.382L43.5288 166.277L42.7401 166.25L41.4009 173.814L43.6548 174.023L44.2546 171.925L45.0844 174.158L51.0574 174.716C51.3437 174.743 51.631 174.677 51.8774 174.528C52.1238 174.379 52.3164 174.155 52.4271 173.889C52.5378 173.622 52.5608 173.327 52.4927 173.047C52.4247 172.766 52.2691 172.515 52.0488 172.329H52.0487Z" fill="#29282C"/>
<path d="M60.0949 127.781C58.9529 134.028 54.1137 148.67 51.1888 157.241C49.8551 161.157 48.924 163.808 48.924 163.808L47.404 163.327L44.8406 162.513L43.904 162.216L42.7702 161.855C42.7702 161.855 43.0359 147.771 42.8578 140.3C42.7976 137.891 42.6935 136.17 42.521 135.829C41.809 134.427 43.0003 134.278 44.2573 133.924C45.5171 133.569 44.5339 133.035 44.0437 131.897C43.7123 131.138 44.3641 130.129 44.827 129.551C44.9545 129.389 45.0907 129.234 45.235 129.087C45.235 129.087 42.0308 127.992 38.4076 126.758C38.4048 126.76 38.4048 126.758 38.4048 126.758C38.0406 126.634 37.6736 126.51 37.3066 126.384C38.5828 125.922 39.4318 125.564 39.6235 125.375C40.7464 124.275 41.2421 125.375 41.9541 126.475C42.6662 127.574 42.8853 126.475 43.8164 125.666C44.7475 124.858 46.8453 125.969 46.8453 125.969C46.8453 125.969 46.8645 125.237 46.8946 124.071C46.9384 122.35 47.0042 119.672 47.0699 116.991C47.0672 116.988 47.0672 116.988 47.0699 116.988C47.0945 115.979 47.1192 114.97 47.1411 114.013C49.0718 115.498 50.9451 116.955 52.643 118.302C52.6458 118.305 52.6513 118.308 52.6513 118.313C56.7346 121.552 59.7991 124.154 60.2291 124.979C60.4235 125.353 60.3578 126.345 60.0949 127.781Z" fill="#29282C"/>
<path d="M48.8832 80.5186C47.5993 80.1254 46.2494 81.4529 46.2885 82.8001C46.3276 84.1472 47.399 85.2877 48.6331 85.8176C49.8673 86.3475 69.4318 89.6557 70.8795 88.9083C72.3272 88.1608 73.3791 86.3681 72.7398 84.8648C72.3282 83.8968 71.4406 79.3959 70.6534 78.7008C68.0034 76.361 70.4353 73.3091 72.0715 70.1699C73.5188 67.3932 76.6392 65.2693 76.6082 62.1356C76.5859 59.8832 74.8891 58.048 73.3003 56.4577L68.249 51.4013L63.4536 46.6012C62.4289 45.5754 58.0327 45.0328 57.2456 45.5095C55.6007 46.5056 51.5306 63.1027 50.949 64.6164C50.7622 65.1025 51.9758 71.3227 52.4705 71.4798C53.8375 75.8292 51.4335 76.6686 48.8203 80.3991" fill="#F7A6B2"/>
<path d="M88.1279 55.3937C87.592 55.5283 87.1294 55.8675 86.8388 56.3392C86.5481 56.811 86.4523 57.378 86.5716 57.9196C86.5976 58.0293 86.6326 58.1366 86.6762 58.2405L81.2215 63.2601L82.7844 66.9353L89.5162 59.248C89.9314 59.033 90.264 58.686 90.4621 58.2613C90.6602 57.8366 90.7127 57.358 90.6114 56.9001C90.5512 56.6402 90.4407 56.3947 90.2861 56.1776C90.1314 55.9605 89.9357 55.7762 89.7101 55.635C89.4845 55.4939 89.2335 55.3988 88.9712 55.3551C88.709 55.3114 88.4408 55.3199 88.1819 55.3803C88.1638 55.3845 88.1459 55.389 88.1279 55.3937Z" fill="#FFEAE3"/>
<path d="M63.5734 51.0042C63.0701 51.1571 62.6055 51.417 62.2111 51.7663C61.8168 52.1156 61.502 52.5461 61.2881 53.0285C61.0743 53.5108 60.9664 54.0338 60.9718 54.5618C60.9773 55.0897 61.0959 55.6103 61.3196 56.0882L64.9136 63.7645L74.255 74.7033C74.255 74.7033 83.7644 69.5787 84.3212 67.4334C84.8781 65.2882 84.1348 64.6355 84.8781 65.2882C85.6214 65.9409 86.4716 65.7757 86.2358 65.4672C85.9999 65.1588 86.1087 65.1557 86.3793 64.7841C86.65 64.4125 87.7142 62.6115 87.7142 62.6115L85.2034 59.3683C85.2034 59.3683 81.9189 60.4605 81.5403 61.2426C81.1618 62.0247 82.2836 61.8953 81.1618 62.0247C80.04 62.1541 78.7509 60.7262 79.7136 62.1754C80.6763 63.6247 80.5092 64.177 79.4709 64.0302C78.4327 63.8834 76.1753 66.3591 76.1753 66.3591L67.7542 52.5987C67.3306 51.9066 66.6907 51.3748 65.9344 51.0863C65.178 50.7979 64.3478 50.769 63.5734 51.0042Z" fill="#F7A6B2"/>
<path d="M60.4406 43.4326C64.9626 43.4326 68.6285 39.7519 68.6285 35.2116C68.6285 30.6712 64.9626 26.9905 60.4406 26.9905C55.9185 26.9905 52.2527 30.6712 52.2527 35.2116C52.2527 39.7519 55.9185 43.4326 60.4406 43.4326Z" fill="#FFEAE3"/>
<path d="M54.1137 29.1337C54.1979 28.3938 54.703 27.4794 55.0543 26.8235C55.4056 26.1677 56.084 25.6321 56.8242 25.6778C57.1267 25.713 57.4162 25.8211 57.6681 25.993C57.92 26.1648 58.1267 26.3953 58.2706 26.6647C58.5532 27.2072 58.7072 27.8078 58.7206 28.4198C58.7979 29.7853 58.5708 31.151 58.0558 32.4172C57.5408 33.6834 56.7509 34.8183 55.7436 35.739C55.1698 36.2558 54.4791 36.7157 53.7085 36.7332C53.3585 36.7248 53.0137 36.6462 52.6945 36.502C52.3752 36.3578 52.0879 36.151 51.8494 35.8936C50.602 34.6393 50.4134 32.5772 51.0796 30.9357C51.7457 29.2942 52.043 28.6554 53.5659 27.7588" fill="#29282C"/>
<path d="M65.616 40.9577C65.479 41.6892 66.7388 45.1676 66.3362 45.7945C66.3362 45.7945 62.1676 47.2483 60.5737 47.3528C58.6266 47.4793 57.0604 46.6772 55.2392 45.4701C55.2062 44.8152 55.0175 44.1778 54.6888 43.6112C54.7163 44.0501 54.6275 44.4885 54.4313 44.8816C51.7639 42.7478 50.7626 36.8801 53.3999 34.1551L56.1386 27.8307C55.317 28.1057 57.7971 23.8571 60.4125 26.9341C63.6852 23.5876 70.0251 28.4051 70.8194 32.7085C70.0551 31.7372 69.657 31.8517 69.4609 32.5216C69.2356 31.9581 68.8787 31.4574 68.4203 31.0614C68.6483 31.5138 68.7648 32.0145 68.7599 32.5215C63.5976 32.8433 64.5584 36.34 68.7897 41.5783C67.225 40.6003 68.2808 44.8147 67.4453 45.822C67.4043 45.1181 65.7638 41.6424 65.616 40.9577Z" fill="#29282C"/>
<path d="M118.901 126.2H141.202C141.275 126.2 141.345 126.171 141.396 126.119C141.448 126.068 141.476 125.998 141.476 125.925C141.476 125.852 141.448 125.782 141.396 125.73C141.345 125.679 141.275 125.65 141.202 125.65H118.901C118.828 125.65 118.759 125.679 118.707 125.73C118.656 125.782 118.627 125.852 118.627 125.925C118.627 125.998 118.656 126.068 118.707 126.119C118.759 126.171 118.828 126.2 118.901 126.2Z" fill="#29282C"/>
<path d="M109.316 32.9833H131.617C131.69 32.9833 131.76 32.9543 131.811 32.9028C131.862 32.8512 131.891 32.7813 131.891 32.7083C131.891 32.6354 131.862 32.5655 131.811 32.5139C131.76 32.4623 131.69 32.4333 131.617 32.4333H109.316C109.243 32.4333 109.173 32.4623 109.122 32.5139C109.071 32.5655 109.042 32.6354 109.042 32.7083C109.042 32.7813 109.071 32.8512 109.122 32.9028C109.173 32.9543 109.243 32.9833 109.316 32.9833Z" fill="#29282C"/>
<path d="M126.733 28.1789C122.212 22.1401 119.598 15.3872 119.513 7.68842C119.367 7.27353 119.391 6.81756 119.58 6.42054C119.769 6.02352 120.106 5.71788 120.519 5.57067L135.932 0.0952443C136.345 -0.0510256 136.799 -0.0267512 137.194 0.162746C137.59 0.352243 137.894 0.691486 138.041 1.10605L145.262 21.5965C145.407 22.0114 145.383 22.4674 145.194 22.8644C145.006 23.2614 144.668 23.5671 144.255 23.7143L128.843 29.1897C128.429 29.336 127.975 29.3117 127.58 29.1222C127.184 28.9327 126.88 28.5935 126.733 28.1789Z" fill="#F0F0F0"/>
<path d="M125.735 21.5698C123.015 18.809 121.851 13.8849 121.092 8.39667C120.956 8.00811 120.979 7.58108 121.155 7.20926C121.332 6.83743 121.649 6.55119 122.035 6.41333L135.281 1.70767C135.668 1.57067 136.093 1.59339 136.464 1.77085C136.834 1.94832 137.119 2.26602 137.256 2.65428L143.682 20.888C143.818 21.2766 143.796 21.7036 143.619 22.0754C143.442 22.4473 143.126 22.7335 142.739 22.8714L134.534 25.7864C132.81 26.3966 130.915 26.2954 129.266 25.5049C127.616 24.7144 126.346 23.2992 125.735 21.5698Z" fill="#FFF0D7"/>
<path d="M137.434 12.4769L127.116 16.1749C126.951 16.2337 126.771 16.2246 126.613 16.1497C126.456 16.0747 126.334 15.94 126.276 15.7751C126.217 15.6103 126.226 15.4288 126.301 15.2706C126.375 15.1124 126.509 14.9905 126.674 14.9317L136.992 11.2337C137.156 11.1751 137.336 11.1843 137.494 11.2593C137.651 11.3343 137.772 11.4689 137.831 11.6337C137.89 11.7984 137.881 11.9798 137.806 12.1379C137.732 12.296 137.598 12.4179 137.434 12.4769Z" fill="#6868AA"/>
<path d="M128.174 11.9525L125.904 12.7661C125.822 12.7953 125.736 12.8082 125.65 12.8039C125.564 12.7996 125.479 12.7784 125.401 12.7413C125.323 12.7042 125.253 12.652 125.195 12.5877C125.137 12.5234 125.092 12.4482 125.063 12.3666C125.034 12.2849 125.021 12.1983 125.026 12.1116C125.03 12.025 125.051 11.9401 125.088 11.8617C125.125 11.7834 125.177 11.7131 125.241 11.655C125.305 11.5968 125.38 11.5519 125.462 11.5229L127.732 10.7093C127.896 10.6507 128.076 10.6599 128.234 10.7349C128.391 10.8099 128.513 10.9445 128.571 11.1093C128.63 11.274 128.621 11.4554 128.546 11.6135C128.472 11.7716 128.338 11.8935 128.174 11.9525Z" fill="#6868AA"/>
<path d="M139.377 17.9423L129.059 21.6402C128.894 21.6988 128.714 21.6896 128.556 21.6146C128.399 21.5397 128.278 21.405 128.219 21.2402C128.161 21.0755 128.169 20.8941 128.244 20.736C128.319 20.5779 128.453 20.456 128.617 20.397L138.935 16.6991C139.099 16.6404 139.279 16.6496 139.437 16.7246C139.594 16.7996 139.715 16.9343 139.774 17.099C139.833 17.2638 139.824 17.4451 139.749 17.6032C139.675 17.7613 139.541 17.8833 139.377 17.9423Z" fill="#6868AA"/>
<path d="M138.405 15.2096L128.087 18.9075C127.923 18.9663 127.742 18.9573 127.585 18.8823C127.427 18.8074 127.306 18.6726 127.247 18.5078C127.188 18.3429 127.197 18.1614 127.272 18.0033C127.347 17.8451 127.481 17.7232 127.645 17.6643L137.963 13.9664C138.044 13.9371 138.131 13.9243 138.217 13.9285C138.303 13.9328 138.388 13.9541 138.466 13.9912C138.544 14.0283 138.614 14.0805 138.672 14.1448C138.73 14.209 138.775 14.2842 138.804 14.3659C138.833 14.4475 138.846 14.5342 138.841 14.6208C138.837 14.7074 138.816 14.7923 138.779 14.8707C138.742 14.949 138.689 15.0193 138.625 15.0774C138.561 15.1356 138.486 15.1805 138.405 15.2096Z" fill="#6868AA"/>
<path d="M120.389 9.88547C121.901 9.88547 123.127 8.65437 123.127 7.13573C123.127 5.61709 121.901 4.38599 120.389 4.38599C118.876 4.38599 117.65 5.61709 117.65 7.13573C117.65 8.65437 118.876 9.88547 120.389 9.88547Z" fill="#6868AA"/>
<path d="M135.771 121.12C131.249 115.081 128.636 108.328 128.55 100.63C128.404 100.215 128.429 99.7587 128.617 99.3617C128.806 98.9647 129.144 98.659 129.557 98.5118L144.969 93.0364C145.382 92.8901 145.837 92.9144 146.232 93.1039C146.627 93.2934 146.932 93.6327 147.078 94.0472L154.299 114.538C154.445 114.953 154.421 115.409 154.232 115.806C154.043 116.203 153.705 116.508 153.292 116.655L137.88 122.131C137.467 122.277 137.013 122.253 136.617 122.063C136.222 121.874 135.917 121.535 135.771 121.12Z" fill="#F0F0F0"/>
<path d="M134.772 114.511C132.053 111.75 130.889 106.826 130.13 101.338C129.994 100.95 130.016 100.522 130.193 100.151C130.37 99.7788 130.686 99.4926 131.073 99.3547L144.318 94.6491C144.705 94.5121 145.131 94.5348 145.501 94.7123C145.871 94.8897 146.156 95.2074 146.294 95.5957L152.719 113.829C152.856 114.218 152.833 114.645 152.656 115.017C152.48 115.389 152.163 115.675 151.776 115.813L143.571 118.728C141.847 119.338 139.953 119.237 138.303 118.446C136.654 117.656 135.384 116.241 134.772 114.511Z" fill="#FFF0D7"/>
<path d="M146.471 105.418L136.153 109.116C135.989 109.175 135.808 109.166 135.651 109.091C135.493 109.016 135.372 108.881 135.313 108.716C135.254 108.551 135.263 108.37 135.338 108.212C135.413 108.054 135.547 107.932 135.711 107.873L146.029 104.175C146.193 104.116 146.374 104.125 146.531 104.2C146.689 104.275 146.81 104.41 146.869 104.575C146.927 104.74 146.918 104.921 146.844 105.079C146.769 105.237 146.635 105.359 146.471 105.418Z" fill="#6868AA"/>
<path d="M137.211 104.894L134.941 105.707C134.777 105.766 134.596 105.757 134.439 105.682C134.282 105.607 134.16 105.472 134.102 105.307C134.043 105.142 134.052 104.961 134.127 104.803C134.201 104.645 134.335 104.523 134.499 104.464L136.769 103.65C136.851 103.621 136.937 103.608 137.023 103.613C137.109 103.617 137.194 103.638 137.272 103.675C137.35 103.712 137.42 103.765 137.478 103.829C137.536 103.893 137.581 103.968 137.61 104.05C137.639 104.132 137.652 104.218 137.647 104.305C137.643 104.391 137.622 104.476 137.585 104.555C137.548 104.633 137.496 104.703 137.432 104.762C137.367 104.82 137.293 104.865 137.211 104.894Z" fill="#6868AA"/>
<path d="M147.443 108.151L137.125 111.849C136.96 111.908 136.78 111.899 136.622 111.824C136.465 111.749 136.343 111.614 136.285 111.449C136.226 111.284 136.235 111.103 136.31 110.945C136.384 110.786 136.518 110.665 136.683 110.606L147.001 106.908C147.082 106.879 147.168 106.866 147.254 106.87C147.341 106.874 147.425 106.895 147.503 106.933C147.582 106.97 147.652 107.022 147.71 107.086C147.768 107.15 147.812 107.226 147.841 107.307C147.87 107.389 147.883 107.476 147.879 107.562C147.874 107.649 147.853 107.734 147.816 107.812C147.779 107.89 147.727 107.961 147.663 108.019C147.599 108.077 147.524 108.122 147.443 108.151Z" fill="#6868AA"/>
<path d="M129.974 102.552C131.487 102.552 132.713 101.321 132.713 99.8022C132.713 98.2836 131.487 97.0525 129.974 97.0525C128.462 97.0525 127.235 98.2836 127.235 99.8022C127.235 101.321 128.462 102.552 129.974 102.552Z" fill="#6868AA"/>
<path d="M86.6216 50.2785C88.1341 50.2785 89.3602 49.0474 89.3602 47.5288C89.3602 46.0102 88.1341 44.7791 86.6216 44.7791C85.1091 44.7791 83.8829 46.0102 83.8829 47.5288C83.8829 49.0474 85.1091 50.2785 86.6216 50.2785Z" fill="#6868AA"/>
<path d="M58.1662 34.2228C58.1002 34.2227 58.0364 34.1987 57.9866 34.1551C57.9368 34.1115 57.9043 34.0514 57.8952 33.9857C57.8861 33.92 57.901 33.8532 57.937 33.7976C57.9731 33.7421 58.0279 33.7015 58.0915 33.6833C58.1633 33.5643 58.1338 33.0637 58.1102 32.6591C58.0211 31.1402 57.872 28.598 60.3301 26.882C60.3897 26.8404 60.4634 26.8242 60.5348 26.8371C60.6063 26.85 60.6698 26.8909 60.7112 26.9507C60.7527 27.0106 60.7688 27.0845 60.7559 27.1563C60.7431 27.228 60.7024 27.2917 60.6428 27.3334C58.4369 28.8735 58.5692 31.1323 58.657 32.6268C58.707 33.4812 58.7432 34.0984 58.227 34.2159C58.2071 34.2205 58.1867 34.2228 58.1662 34.2228Z" fill="#6868AA"/>
<path d="M4.51173 174.673C4.51161 174.716 4.51995 174.759 4.53628 174.798C4.55261 174.838 4.57661 174.874 4.6069 174.905C4.63719 174.935 4.67317 174.959 4.71277 174.975C4.75237 174.992 4.79481 175 4.83764 175H74.2047C74.2912 175 74.3741 174.966 74.4352 174.904C74.4963 174.843 74.5306 174.76 74.5306 174.673C74.5306 174.586 74.4963 174.503 74.4352 174.442C74.3741 174.38 74.2912 174.346 74.2047 174.346H4.83764C4.79481 174.346 4.75238 174.354 4.71278 174.37C4.67318 174.387 4.6372 174.411 4.60691 174.441C4.57662 174.472 4.55261 174.508 4.53628 174.548C4.51995 174.587 4.51161 174.63 4.51173 174.673Z" fill="#625C60"/>
<path d="M58.2938 28.2128C56.6223 27.5163 54.8419 27.1202 53.0339 27.0424C51.5997 26.9814 49.8887 27.3025 49.3057 28.6195C48.952 29.4185 49.1404 30.355 49.4639 31.1668C49.7875 31.9785 50.2415 32.7455 50.4288 33.5994C50.8324 35.4388 49.8799 37.3883 48.4179 38.5686C46.956 39.749 45.0694 40.2699 43.2083 40.5068C44.6065 41.0276 46.0262 41.5535 47.5124 41.6784C48.9986 41.8034 50.5859 41.479 51.6955 40.4785C52.8963 39.3958 53.3577 37.7141 53.562 36.1067C53.7662 34.4993 53.7768 32.8438 54.3195 31.3177C54.8622 29.7916 56.1088 28.3703 57.717 28.235" fill="#29282C"/>
</g>
<defs>
<clipPath id="clip0_6_1583">
<rect width="153.788" height="175" fill="white" transform="translate(0.606064)"/>
</clipPath>
</defs>
</svg>
